<svg width="129" height="34" viewBox="0 0 129 34" fill="none" xmlns="http://www.w3.org/2000/svg">
<path d="M27.8564 33.7634H6.76106C3.29439 33.7634 0.484863 30.9819 0.484863 27.5499V6.66559C0.484863 3.23359 3.29439 0.452148 6.76106 0.452148H27.8564C31.323 0.452148 34.1326 3.23359 34.1326 6.66559V27.5499C34.1326 30.9819 31.323 33.7634 27.8564 33.7634Z" fill="#7782FF"/>
<path d="M23.3703 17.414C23.9703 18.1589 24.2751 19.0263 24.2751 20.0069C24.2751 21.4494 23.7893 22.5809 22.8179 23.3823C21.8465 24.1837 20.456 24.5986 18.6465 24.5986H10.7417V7.76855H18.456C20.1893 7.76855 21.5227 8.1457 22.4655 8.89056C23.4084 9.63542 23.8846 10.7008 23.8846 12.0774C23.8846 13.0957 23.6084 13.9349 23.0655 14.6137C22.5227 15.2926 21.8084 15.7263 20.9227 15.9337C21.9608 16.1789 22.7703 16.6691 23.3703 17.414ZM14.8465 14.6514H17.5417C18.9703 14.6514 19.6846 14.048 19.6846 12.8411C19.6846 11.6343 18.9512 11.0308 17.4941 11.0308H14.8465V14.6514ZM20.0655 19.4412C20.0655 18.8377 19.8655 18.3663 19.4655 18.0269C19.0655 17.6874 18.4941 17.5177 17.7608 17.5177H14.856V21.2986H17.7893C19.3036 21.2892 20.0655 20.6763 20.0655 19.4412Z" fill="white"/>
<path d="M53.6281 24.5986L49.9519 18.2437H49.0186V24.5986H44.9043V7.76855H51.9234C53.2662 7.76855 54.4091 7.99484 55.3329 8.45684C56.2662 8.91885 56.9615 9.55056 57.4281 10.352C57.8948 11.1534 58.1234 12.068 58.1234 13.1051C58.1234 14.3309 57.7805 15.368 57.1043 16.226C56.4186 17.084 55.4377 17.6686 54.1329 17.9892L58.171 24.608H53.6281V24.5986ZM49.0186 15.4623H51.5614C52.3805 15.4623 52.9805 15.2831 53.3615 14.9249C53.7424 14.5666 53.9424 14.0386 53.9424 13.3409C53.9424 12.6714 53.7424 12.1528 53.3519 11.7663C52.9615 11.3891 52.3614 11.1911 51.5614 11.1911H49.0186V15.4623Z" fill="#263238"/>
<path d="M76.7329 21.5341H70.3615L69.3043 24.6079H64.9805L71.2091 7.90039H75.9424L82.171 24.6079H77.7996L76.7329 21.5341ZM75.6757 18.4321L73.5614 12.247L71.4186 18.4321H75.6757Z" fill="#263238"/>
<path d="M104.866 24.5986H100.752L93.876 14.2649V24.5986H89.7617V7.76855H93.876L100.752 18.1966V7.76855H104.866V24.5986Z" fill="#263238"/>
<path d="M127.933 20.5446C127.219 21.8175 126.191 22.8169 124.857 23.5335C123.514 24.2501 121.943 24.6084 120.133 24.6084H113.714V7.77832H120.133C121.962 7.77832 123.543 8.12718 124.867 8.82489C126.2 9.52261 127.219 10.5032 127.933 11.776C128.648 13.0489 129 14.5009 129 16.1603C129 17.8009 128.638 19.2623 127.933 20.5446ZM123.505 19.6961C124.391 18.8569 124.838 17.6689 124.838 16.1509C124.838 14.6235 124.391 13.4449 123.505 12.6058C122.619 11.7666 121.372 11.3423 119.762 11.3423H117.819V20.9595H119.762C121.372 20.9595 122.619 20.5446 123.505 19.6961Z" fill="#263238"/>
</svg>
