<svg width="159" height="36" viewBox="0 0 159 36" fill="none" xmlns="http://www.w3.org/2000/svg">
<path d="M49.041 17.7794C50.193 18.0494 51.102 18.6074 51.768 19.4534C52.452 20.2994 52.794 21.2804 52.794 22.3964C52.794 24.0344 52.245 25.3124 51.147 26.2304C50.067 27.1484 48.51 27.6074 46.476 27.6074H37.593V8.51842H46.26C48.204 8.51842 49.707 8.94142 50.769 9.78742C51.831 10.6334 52.362 11.8394 52.362 13.4054C52.362 14.5574 52.056 15.5204 51.444 16.2944C50.832 17.0504 50.031 17.5454 49.041 17.7794ZM42.21 16.3214H45.234C46.836 16.3214 47.637 15.6374 47.637 14.2694C47.637 12.9014 46.818 12.2174 45.18 12.2174H42.21V16.3214ZM45.504 23.8544C47.214 23.8544 48.069 23.1524 48.069 21.7484C48.069 21.0644 47.844 20.5334 47.394 20.1554C46.944 19.7594 46.305 19.5614 45.477 19.5614H42.21V23.8544H45.504ZM54.8006 8.30242C54.8006 7.60042 55.0526 7.02442 55.5566 6.57442C56.0606 6.10642 56.7266 5.87242 57.5546 5.87242C58.3826 5.87242 59.0486 6.10642 59.5526 6.57442C60.0566 7.02442 60.3086 7.60042 60.3086 8.30242C60.3086 8.98642 60.0566 9.56242 59.5526 10.0304C59.0486 10.4804 58.3826 10.7054 57.5546 10.7054C56.7266 10.7054 56.0606 10.4804 55.5566 10.0304C55.0526 9.56242 54.8006 8.98642 54.8006 8.30242ZM59.8496 12.5414V27.6074H55.2326V12.5414H59.8496ZM71.5693 23.6384V27.6074H69.4903C67.7263 27.6074 66.3493 27.1754 65.3593 26.3114C64.3873 25.4294 63.9013 23.9804 63.9013 21.9644V16.4294H61.8763V12.5414H63.9013V8.84242H68.5183V12.5414H71.5423V16.4294H68.5183V22.0454C68.5183 22.6394 68.6353 23.0534 68.8693 23.2874C69.1213 23.5214 69.5353 23.6384 70.1113 23.6384H71.5693ZM82.6963 23.6384V27.6074H80.6173C78.8533 27.6074 77.4763 27.1754 76.4863 26.3114C75.5143 25.4294 75.0283 23.9804 75.0283 21.9644V16.4294H73.0033V12.5414H75.0283V8.84242H79.6453V12.5414H82.6693V16.4294H79.6453V22.0454C79.6453 22.6394 79.7623 23.0534 79.9963 23.2874C80.2483 23.5214 80.6623 23.6384 81.2383 23.6384H82.6963ZM92.3382 12.3524C93.8322 12.3524 95.1642 12.6674 96.3342 13.2974C97.5222 13.9094 98.4492 14.8004 99.1152 15.9704C99.7992 17.1404 100.141 18.5084 100.141 20.0744C100.141 21.6404 99.7992 23.0084 99.1152 24.1784C98.4492 25.3484 97.5222 26.2484 96.3342 26.8784C95.1642 27.4904 93.8322 27.7964 92.3382 27.7964C90.8442 27.7964 89.5032 27.4904 88.3152 26.8784C87.1272 26.2484 86.1912 25.3484 85.5072 24.1784C84.8412 23.0084 84.5082 21.6404 84.5082 20.0744C84.5082 18.5084 84.8412 17.1404 85.5072 15.9704C86.1912 14.8004 87.1272 13.9094 88.3152 13.2974C89.5032 12.6674 90.8442 12.3524 92.3382 12.3524ZM92.3382 16.3484C91.4562 16.3484 90.7092 16.6724 90.0972 17.3204C89.5032 17.9504 89.2062 18.8684 89.2062 20.0744C89.2062 21.2804 89.5032 22.1984 90.0972 22.8284C90.7092 23.4584 91.4562 23.7734 92.3382 23.7734C93.2202 23.7734 93.9582 23.4584 94.5522 22.8284C95.1462 22.1984 95.4432 21.2804 95.4432 20.0744C95.4432 18.8684 95.1462 17.9504 94.5522 17.3204C93.9582 16.6724 93.2202 16.3484 92.3382 16.3484ZM107.152 15.3764C107.728 14.4584 108.466 13.7294 109.366 13.1894C110.284 12.6494 111.274 12.3794 112.336 12.3794V17.3204H111.013C109.789 17.3204 108.835 17.5814 108.151 18.1034C107.485 18.6254 107.152 19.5074 107.152 20.7494V27.6074H102.535V12.5414H107.152V15.3764ZM128.579 19.6694C128.579 20.0474 128.534 20.4614 128.444 20.9114H117.995C118.049 22.0454 118.337 22.8644 118.859 23.3684C119.381 23.8544 120.047 24.0974 120.857 24.0974C121.541 24.0974 122.108 23.9264 122.558 23.5844C123.008 23.2424 123.305 22.8014 123.449 22.2614H128.336C128.138 23.3234 127.706 24.2774 127.04 25.1234C126.374 25.9514 125.528 26.6084 124.502 27.0944C123.476 27.5624 122.333 27.7964 121.073 27.7964C119.597 27.7964 118.283 27.4904 117.131 26.8784C115.997 26.2484 115.106 25.3484 114.458 24.1784C113.81 23.0084 113.486 21.6404 113.486 20.0744C113.486 18.4904 113.801 17.1224 114.431 15.9704C115.079 14.8004 115.979 13.9094 117.131 13.2974C118.283 12.6674 119.597 12.3524 121.073 12.3524C122.567 12.3524 123.881 12.6584 125.015 13.2704C126.149 13.8824 127.022 14.7464 127.634 15.8624C128.264 16.9604 128.579 18.2294 128.579 19.6694ZM123.908 18.9674C123.926 17.9774 123.656 17.2394 123.098 16.7534C122.558 16.2494 121.883 15.9974 121.073 15.9974C120.227 15.9974 119.525 16.2494 118.967 16.7534C118.409 17.2574 118.094 17.9954 118.022 18.9674H123.908ZM140.544 12.3794C142.272 12.3794 143.64 12.9554 144.648 14.1074C145.674 15.2594 146.187 16.8434 146.187 18.8594V27.6074H141.57V19.3994C141.57 18.3914 141.3 17.6084 140.76 17.0504C140.238 16.4744 139.536 16.1864 138.654 16.1864C137.718 16.1864 136.971 16.4834 136.413 17.0774C135.873 17.6714 135.603 18.5174 135.603 19.6154V27.6074H130.986V12.5414H135.603V15.2954C136.035 14.3954 136.674 13.6844 137.52 13.1624C138.384 12.6404 139.392 12.3794 140.544 12.3794ZM157.764 23.6384V27.6074H155.685C153.921 27.6074 152.544 27.1754 151.554 26.3114C150.582 25.4294 150.096 23.9804 150.096 21.9644V16.4294H148.071V12.5414H150.096V8.84242H154.713V12.5414H157.737V16.4294H154.713V22.0454C154.713 22.6394 154.83 23.0534 155.064 23.2874C155.316 23.5214 155.73 23.6384 156.306 23.6384H157.764Z" fill="#263238"/>
<rect y="3.60742" width="9" height="9" fill="#3EBA59"/>
<rect y="12.6074" width="9" height="10" fill="#83EBFF"/>
<rect y="22.6074" width="9" height="9" fill="#20C1E1"/>
<rect x="9" y="3.60742" width="10" height="9" fill="#83EBFF"/>
<rect x="9" y="22.6074" width="10" height="9" fill="#83EBFF"/>
<rect x="19" y="3.60742" width="9" height="9" fill="#20C1E1"/>
<rect x="19" y="12.6074" width="9" height="10" fill="#83EBFF"/>
<rect x="19" y="22.6074" width="9" height="9" fill="#3EBA59"/>
<rect x="5" y="8.60742" width="18" height="18" fill="white"/>
</svg>
