<svg width="93" height="38" viewBox="0 0 93 38" fill="none" xmlns="http://www.w3.org/2000/svg">
<path d="M0.722168 23.5775V0.833984H14.2524V23.5664H0.722168V23.5775ZM12.613 18.2862L12.9611 15.774L11.7035 15.6517L11.3218 17.5859C10.5358 17.975 9.57013 18.164 8.41361 18.164C6.84164 18.164 5.59528 17.6749 4.68578 16.6855C3.76506 15.6962 3.31592 14.3956 3.31592 12.7727C3.31592 11.1942 3.76506 9.8936 4.6521 8.87092C5.53914 7.84824 6.70692 7.3369 8.15538 7.3369C8.89645 7.3369 9.52522 7.42583 10.0305 7.59257C10.5358 7.75931 10.9961 7.98163 11.434 8.27065L11.8046 10.1826L13.0846 10.0603L12.7141 7.5481C12.1751 7.09234 11.5351 6.72551 10.794 6.43649C10.0529 6.15859 9.13224 6.01408 8.04309 6.01408C6.75183 6.01408 5.64022 6.32533 4.70826 6.95895C3.77631 7.59257 3.04646 8.42627 2.52995 9.46007C2.01345 10.505 1.75519 11.6277 1.75519 12.8282C1.75519 14.7291 2.35029 16.3187 3.5405 17.5859C4.73071 18.8532 6.28022 19.4868 8.20027 19.4868C10.0866 19.4868 11.5576 19.0866 12.613 18.2862Z" fill="#263238"/>
<path d="M18.8452 23.5775V0.833984H24.6615V23.5664H18.8452V23.5775ZM19.4628 19.2867H24.0552V18.1417H22.472V5.44716H19.4403V6.59212H21.046V18.1417H19.4628V19.2867Z" fill="#263238"/>
<path d="M29.2539 23.5775V0.833984H39.4717V23.5664H29.2539V23.5775ZM31.1066 11.0163L30.781 13.0839L31.9599 13.2284L32.308 11.6833C32.8133 11.4387 33.3859 11.3165 34.0596 11.3165C34.8681 11.3165 35.4183 11.5165 35.699 11.9167C35.9797 12.3169 36.1145 12.8394 36.1145 13.4841V14.2845C35.8674 14.2622 35.6092 14.24 35.3285 14.2289C35.0478 14.2178 34.7783 14.2066 34.5088 14.2066C33.4983 14.2066 32.5326 14.3845 31.6343 14.7402C30.736 15.0959 30.2869 15.8407 30.2869 16.9634C30.2869 17.9194 30.5901 18.5753 31.2077 18.931C31.8252 19.2978 32.4316 19.4757 33.0267 19.4757C33.7565 19.4757 34.3853 19.2867 34.9018 18.9087C35.4183 18.5308 35.8225 18.1084 36.1145 17.6193V17.6637C36.1369 18.8754 36.6871 19.4757 37.765 19.4757C38.1805 19.4757 38.5735 19.3756 38.944 19.1755L38.9216 18.2529C38.7419 18.3307 38.5398 18.3752 38.3152 18.3752C37.7987 18.3752 37.5405 18.0528 37.5405 17.4081V13.1506C37.5405 11.1497 36.4625 10.1493 34.3067 10.1493C33.7116 10.1493 33.1502 10.216 32.6224 10.3494C32.0835 10.4939 31.5782 10.7162 31.1066 11.0163ZM36.1032 15.9296C36.0471 16.6633 35.7439 17.2524 35.1937 17.6749C34.6435 18.1084 34.0597 18.3196 33.4309 18.3196C33.0379 18.3196 32.6561 18.2084 32.2968 17.9972C31.9263 17.786 31.7466 17.3858 31.7466 16.8078C31.7466 16.1075 32.0273 15.6628 32.5663 15.4516C33.1165 15.2404 33.7228 15.1404 34.4077 15.1404C34.7109 15.1404 35.0028 15.1515 35.2835 15.1849C35.5642 15.2071 35.845 15.2293 36.092 15.2404V15.9296H36.1032Z" fill="#263238"/>
<path d="M44.0752 23.5775V0.833984H53.361V23.5664H44.0752V23.5775ZM52.3842 16.6966C52.3842 15.9852 52.1933 15.4628 51.8115 15.1182C51.4298 14.7736 50.9694 14.5401 50.408 14.4067C49.8466 14.2733 49.2964 14.1622 48.7462 14.0732C48.196 13.9843 47.7244 13.8398 47.3427 13.6508C46.9609 13.4619 46.77 13.1284 46.77 12.6504C46.77 12.1946 46.9496 11.8611 47.3202 11.6388C47.6907 11.4165 48.1511 11.3165 48.7237 11.3165C49.3862 11.3165 50.0038 11.461 50.5764 11.7611L50.801 13.2062L51.98 13.0617L51.7554 10.9719C51.3736 10.7384 50.9133 10.5494 50.3631 10.3938C49.8129 10.2382 49.229 10.1493 48.6002 10.1493C47.7693 10.1493 47.0058 10.3494 46.2984 10.7384C45.591 11.1275 45.243 11.7944 45.243 12.7504C45.243 13.4507 45.4338 13.9621 45.8156 14.2845C46.1973 14.6179 46.669 14.8403 47.2416 14.9736C47.8143 15.107 48.3756 15.2182 48.9371 15.3182C49.4985 15.4072 49.9701 15.5628 50.3519 15.7629C50.7336 15.963 50.9245 16.3076 50.9245 16.8078C50.9245 17.3191 50.6774 17.6971 50.1834 17.9416C49.6894 18.1862 49.128 18.3085 48.4879 18.3085C47.7693 18.3085 47.0956 18.164 46.478 17.8638L46.5342 16.6744L45.4001 16.5521L45.1194 18.5864C45.5124 18.842 46.0289 19.0533 46.6577 19.22C47.2865 19.3867 47.9153 19.4757 48.5553 19.4757C49.6445 19.4757 50.554 19.2311 51.2838 18.7309C52.0137 18.2529 52.3842 17.5637 52.3842 16.6966Z" fill="#263238"/>
<path d="M57.9536 23.5775V0.833984H67.2394V23.5664H57.9536V23.5775ZM66.2626 16.6966C66.2626 15.9852 66.0717 15.4628 65.6899 15.1182C65.3081 14.7736 64.8478 14.5401 64.2864 14.4067C63.7249 14.2733 63.1748 14.1622 62.6246 14.0732C62.0744 13.9843 61.6028 13.8398 61.221 13.6508C60.8393 13.4619 60.6484 13.1284 60.6484 12.6504C60.6484 12.1946 60.828 11.8611 61.1986 11.6388C61.5691 11.4165 62.0295 11.3165 62.6021 11.3165C63.2646 11.3165 63.8822 11.461 64.4548 11.7611L64.6794 13.2062L65.8584 13.0617L65.6338 10.9719C65.252 10.7384 64.7917 10.5494 64.2415 10.3938C63.6913 10.2382 63.1074 10.1493 62.4786 10.1493C61.6477 10.1493 60.8842 10.3494 60.1768 10.7384C59.4694 11.1275 59.1213 11.7944 59.1213 12.7504C59.1213 13.4507 59.3122 13.9621 59.694 14.2845C60.0758 14.6179 60.5474 14.8403 61.12 14.9736C61.6927 15.107 62.254 15.2182 62.8154 15.3182C63.3769 15.4072 63.8485 15.5628 64.2302 15.7629C64.612 15.963 64.8029 16.3076 64.8029 16.8078C64.8029 17.3191 64.5559 17.6971 64.0619 17.9416C63.5678 18.1862 63.0064 18.3085 62.3664 18.3085C61.6477 18.3085 60.974 18.164 60.3564 17.8638L60.4126 16.6744L59.2786 16.5521L58.9978 18.5864C59.3908 18.842 59.9073 19.0533 60.5361 19.22C61.1649 19.3867 61.7937 19.4757 62.4337 19.4757C63.5229 19.4757 64.4324 19.2311 65.1622 18.7309C65.8921 18.2529 66.2626 17.5637 66.2626 16.6966Z" fill="#263238"/>
<path d="M71.8315 23.5775V0.833984H77.951V23.5664H71.8315V23.5775ZM72.7298 19.2867H77.3222V18.1417H75.739V10.3382H72.6961V11.4832H74.3242V18.1417H72.741V19.2867H72.7298ZM74.1671 6.19194V8.0261H75.7166V6.19194H74.1671Z" fill="#263238"/>
<path d="M82.5435 23.5775V0.833984H92.3234V23.5664H82.5435V23.5775ZM91.4475 16.2742L90.2237 16.0074C89.9542 17.5192 89.1346 18.2751 87.7872 18.2751C86.8889 18.2751 86.2039 17.975 85.7323 17.3747C85.2608 16.7745 85.025 15.9296 85.025 14.8625C85.025 13.8954 85.2383 13.0728 85.6537 12.3836C86.0692 11.6944 86.7653 11.3609 87.731 11.3609C88.472 11.3609 89.1233 11.5277 89.6623 11.8611L90.0104 13.3729L91.1893 13.2284L90.8412 11.0719C90.3809 10.7273 89.8981 10.4828 89.3928 10.3494C88.8875 10.216 88.3373 10.1493 87.7422 10.1493C86.3387 10.1493 85.2719 10.6384 84.5758 11.6166C83.8684 12.5948 83.5203 13.7064 83.5203 14.9403C83.5203 16.3743 83.8909 17.497 84.6432 18.2862C85.3842 19.0866 86.3836 19.4868 87.6299 19.4868C88.8763 19.4868 89.797 19.1422 90.3809 18.4641C90.9648 17.7749 91.324 17.0524 91.4475 16.2742Z" fill="#263238"/>
<path d="M6.57235 35.9942C6.3141 36.461 5.93232 36.8279 5.43827 37.0835C4.93299 37.3392 4.33788 37.4726 3.64172 37.4726H1.63184V31.2031H3.64172C4.33788 31.2031 4.94422 31.3254 5.43827 31.5811C5.93232 31.8367 6.3141 32.1925 6.57235 32.6704C6.8306 33.1484 6.95411 33.6931 6.95411 34.3379C6.95411 34.9715 6.8306 35.5273 6.57235 35.9942ZM5.46072 36.1164C5.89862 35.694 6.11198 35.1049 6.11198 34.3379C6.11198 33.5709 5.89862 32.9817 5.46072 32.5593C5.02281 32.1369 4.39402 31.9257 3.56312 31.9257H2.42908V36.7501H3.56312C4.39402 36.7501 5.02281 36.5388 5.46072 36.1164Z" fill="#FF5196"/>
<path d="M11.12 31.859V34.0044H13.5229V34.6269H11.12V36.8167H13.7923V37.4726H10.3003V31.2031H13.7923V31.859H11.12Z" fill="#FF5196"/>
<path d="M20.8889 36.6716C20.7429 36.9272 20.5296 37.1384 20.2376 37.2941C19.9457 37.4497 19.5864 37.5386 19.1485 37.5386C18.733 37.5386 18.3513 37.4608 18.0256 37.3163C17.7 37.1607 17.4418 36.9606 17.2397 36.6938C17.0488 36.427 16.9365 36.1269 16.9028 35.7934H17.7786C17.8011 35.9712 17.8572 36.1491 17.9583 36.3158C18.0593 36.4826 18.2165 36.6271 18.4074 36.7383C18.5983 36.8494 18.8341 36.905 19.1148 36.905C19.4741 36.905 19.7548 36.8161 19.9457 36.616C20.1366 36.4159 20.2376 36.1824 20.2376 35.8823C20.2376 35.6266 20.1703 35.4154 20.0355 35.2598C19.9008 35.1042 19.7324 34.9708 19.5415 34.8819C19.3506 34.7929 19.0699 34.6929 18.733 34.5817C18.3288 34.4483 18.0144 34.3261 17.7674 34.2149C17.5204 34.1037 17.3183 33.9259 17.1498 33.6924C16.9814 33.459 16.8916 33.1589 16.8916 32.7809C16.8916 32.4586 16.9702 32.1695 17.1274 31.9139C17.2846 31.6693 17.5091 31.4692 17.8123 31.3358C18.1042 31.2024 18.4636 31.1357 18.8566 31.1357C19.4741 31.1357 19.9794 31.2803 20.3387 31.5804C20.7092 31.8805 20.9113 32.2585 20.9787 32.7253H20.1029C20.058 32.4808 19.9233 32.2585 19.7211 32.0695C19.5078 31.8805 19.2271 31.7805 18.8678 31.7805C18.5421 31.7805 18.2727 31.8694 18.0818 32.0361C17.8797 32.2029 17.7899 32.4474 17.7899 32.7476C17.7899 32.9921 17.8572 33.1922 17.9808 33.3367C18.1155 33.4924 18.2727 33.6035 18.4636 33.6924C18.6544 33.7814 18.9239 33.8703 19.2495 33.9815C19.6538 34.1149 19.9794 34.2371 20.2376 34.3594C20.4847 34.4817 20.698 34.6595 20.8664 34.893C21.0348 35.1264 21.1247 35.4488 21.1247 35.849C21.1022 36.138 21.0349 36.4159 20.8889 36.6716Z" fill="#FF5196"/>
<path d="M25.2674 31.2031V37.4726H24.4478V31.2031H25.2674Z" fill="#FF5196"/>
<path d="M33.5543 31.6812C34.0596 32.048 34.3964 32.5371 34.5648 33.1596H33.7002C33.5543 32.7817 33.296 32.4704 32.9479 32.2481C32.5999 32.0146 32.1844 31.9035 31.7016 31.9035C31.2749 31.9035 30.8819 32.0035 30.545 32.2036C30.2082 32.4037 29.9387 32.6816 29.7366 33.0484C29.5458 33.4153 29.4447 33.8488 29.4447 34.349C29.4447 34.8604 29.5458 35.305 29.7366 35.6718C29.9275 36.0387 30.2082 36.3277 30.5563 36.5278C30.9044 36.7279 31.3086 36.8279 31.769 36.8279C32.162 36.8279 32.51 36.739 32.8356 36.5834C33.1613 36.4166 33.4195 36.1721 33.6328 35.8608C33.8462 35.5496 33.9585 35.1716 34.0034 34.7492H31.5107V34.1489H34.6883V34.8937C34.6322 35.3939 34.475 35.8386 34.2167 36.2499C33.9585 36.6612 33.6104 36.9724 33.1725 37.2059C32.7346 37.4393 32.2405 37.5616 31.6791 37.5616C31.0728 37.5616 30.5338 37.4282 30.0622 37.1614C29.5906 36.8946 29.2313 36.5167 28.9731 36.0276C28.7148 35.5496 28.5801 34.9938 28.5801 34.3713C28.5801 33.7488 28.7148 33.193 28.9731 32.715C29.2313 32.237 29.6019 31.8479 30.0622 31.5811C30.5226 31.3143 31.0615 31.1698 31.6679 31.1698C32.4314 31.1476 33.049 31.3255 33.5543 31.6812Z" fill="#FF5196"/>
<path d="M42.9746 37.4726H42.155L38.8651 32.5148V37.4726H38.0454V31.2031H38.8651L42.155 36.1609V31.2031H42.9746V37.4726Z" fill="#FF5196"/>
<path d="M54.7868 36.6716C54.6409 36.9272 54.4275 37.1384 54.1356 37.2941C53.8436 37.4497 53.4844 37.5386 53.0465 37.5386C52.631 37.5386 52.2493 37.4608 51.9236 37.3163C51.598 37.1607 51.3397 36.9606 51.1376 36.6938C50.9467 36.427 50.8345 36.1269 50.8008 35.7934H51.6766C51.699 35.9712 51.7552 36.1491 51.8563 36.3158C51.9573 36.4826 52.1145 36.6271 52.3054 36.7383C52.4962 36.8494 52.732 36.905 53.0127 36.905C53.3721 36.905 53.6528 36.8161 53.8436 36.616C54.0345 36.4159 54.1356 36.1824 54.1356 35.8823C54.1356 35.6266 54.0682 35.4154 53.9335 35.2598C53.7987 35.1042 53.6303 34.9708 53.4394 34.8819C53.2485 34.7929 52.9679 34.6929 52.631 34.5817C52.2268 34.4483 51.9124 34.3261 51.6653 34.2149C51.4183 34.1037 51.2162 33.9259 51.0478 33.6924C50.8794 33.459 50.7896 33.1589 50.7896 32.7809C50.7896 32.4586 50.8681 32.1695 51.0253 31.9139C51.1825 31.6693 51.4071 31.4692 51.7103 31.3358C52.0022 31.2024 52.3615 31.1357 52.7545 31.1357C53.3721 31.1357 53.8774 31.2803 54.2367 31.5804C54.6072 31.8805 54.8093 32.2585 54.8767 32.7253H54.0008C53.9559 32.4808 53.8212 32.2585 53.6191 32.0695C53.4057 31.8805 53.1251 31.7805 52.7658 31.7805C52.4401 31.7805 52.1706 31.8694 51.9798 32.0361C51.7776 32.2029 51.6878 32.4474 51.6878 32.7476C51.6878 32.9921 51.7552 33.1922 51.8787 33.3367C52.0134 33.4924 52.1706 33.6035 52.3615 33.6924C52.5524 33.7814 52.8219 33.8703 53.1475 33.9815C53.5517 34.1149 53.8773 34.2371 54.1356 34.3594C54.3826 34.4817 54.5959 34.6595 54.7644 34.893C54.9328 35.1264 55.0226 35.4488 55.0226 35.849C55.0001 36.138 54.9328 36.4159 54.7868 36.6716Z" fill="#FF5196"/>
<path d="M62.2312 31.2031V31.859H60.4458V37.4726H59.6149V31.859H57.8296V31.2031H62.2312Z" fill="#FF5196"/>
<path d="M66.0496 31.2031V34.9604C66.0496 35.5717 66.1843 36.0275 66.4651 36.3276C66.7458 36.6167 67.1163 36.7723 67.6104 36.7723C68.0932 36.7723 68.4637 36.6278 68.7332 36.3276C69.0027 36.0275 69.1374 35.5829 69.1374 34.9715V31.2142H69.9571V34.9715C69.9571 35.8274 69.7438 36.4722 69.3171 36.8946C68.8904 37.3281 68.3177 37.5393 67.5991 37.5393C66.8917 37.5393 66.3191 37.3281 65.8925 36.8946C65.4658 36.461 65.2524 35.8274 65.2524 34.9715V31.2142H66.0496V31.2031Z" fill="#FF5196"/>
<path d="M78.4111 35.9942C78.1529 36.461 77.7711 36.8279 77.2771 37.0835C76.7718 37.3392 76.1767 37.4726 75.4806 37.4726H73.4707V31.2031H75.4806C76.1767 31.2031 76.783 31.3254 77.2771 31.5811C77.7711 31.8367 78.1529 32.1925 78.4111 32.6704C78.6694 33.1484 78.7929 33.6931 78.7929 34.3379C78.7929 34.9715 78.6694 35.5273 78.4111 35.9942ZM77.3108 36.1164C77.7487 35.694 77.9621 35.1049 77.9621 34.3379C77.9621 33.5709 77.7487 32.9817 77.3108 32.5593C76.8729 32.1369 76.2441 31.9257 75.4132 31.9257H74.2791V36.7501H75.4132C76.2329 36.7501 76.8729 36.5388 77.3108 36.1164Z" fill="#FF5196"/>
<path d="M82.97 31.2031V37.4726H82.1504V31.2031H82.97Z" fill="#FF5196"/>
<path d="M91.0099 31.5363C91.4815 31.8142 91.852 32.1921 92.1215 32.6812C92.3909 33.1704 92.5257 33.7262 92.5257 34.3375C92.5257 34.9489 92.3909 35.5047 92.1215 35.9938C91.852 36.483 91.4815 36.8609 91.0099 37.1388C90.5383 37.4167 90.0105 37.5501 89.4266 37.5501C88.8428 37.5501 88.3038 37.4167 87.8322 37.1388C87.3606 36.8609 86.9789 36.483 86.7094 35.9938C86.4399 35.5047 86.3052 34.9489 86.3052 34.3375C86.3052 33.7262 86.4399 33.1704 86.7094 32.6812C86.9789 32.1921 87.3494 31.8142 87.8322 31.5363C88.315 31.2584 88.8428 31.125 89.4266 31.125C90.0105 31.125 90.5383 31.2584 91.0099 31.5363ZM88.2477 32.181C87.8996 32.3811 87.6301 32.659 87.4393 33.037C87.2484 33.4038 87.1473 33.8373 87.1473 34.3375C87.1473 34.8267 87.2484 35.2602 87.4393 35.6381C87.6301 36.0161 87.8996 36.294 88.2477 36.4941C88.5957 36.6942 88.9775 36.7942 89.4154 36.7942C89.8421 36.7942 90.2351 36.6942 90.5832 36.4941C90.9313 36.294 91.2007 36.005 91.3916 35.6381C91.5825 35.2713 91.6835 34.8378 91.6835 34.3487C91.6835 33.8484 91.5825 33.4149 91.3916 33.0481C91.2007 32.6813 90.9313 32.3922 90.5832 32.1921C90.2351 31.9921 89.8533 31.892 89.4154 31.892C88.9887 31.8809 88.5957 31.9809 88.2477 32.181Z" fill="#FF5196"/>
</svg>
