<svg width="149" height="50" viewBox="0 0 149 50" fill="none" xmlns="http://www.w3.org/2000/svg">
<path d="M148.296 8.60076C145.792 7.54473 143.243 6.72214 140.66 6.07741C138.089 5.39932 135.484 4.92133 132.868 4.58785C131.565 4.38776 130.24 4.3433 128.938 4.18767C127.624 4.15432 126.322 4.02093 125.008 4.07651C124.357 4.08763 123.694 4.08763 123.043 4.07651C122.392 4.07651 121.729 4.14321 121.078 4.16544C120.427 4.2099 119.764 4.22102 119.113 4.28772L117.159 4.52115C114.543 4.73236 112.006 5.26593 109.468 5.92178C106.897 6.53317 104.46 7.40022 101.866 8.26728C99.2052 9.14545 96.3196 9.67902 93.4226 9.27884C91.9966 9.0454 90.5594 8.54518 89.4253 7.65589C88.2688 6.77772 87.4828 5.57718 87 4.32106C87.7972 5.42156 88.7853 6.32196 89.9194 6.87777C91.0534 7.43357 92.2998 7.66701 93.5461 7.65589C96.0613 7.65589 98.554 6.85553 100.912 5.85508C103.315 4.72124 105.953 3.7208 108.581 2.89821C111.231 2.10896 113.993 1.50869 116.755 1.21968C122.268 0.641639 127.905 0.775032 133.306 2.04227C136.012 2.60919 138.651 3.47624 141.177 4.54339C143.715 5.63276 146.162 6.9 148.296 8.60076Z" fill="#FEBA66"/>
<path d="M0 41.2275C2.95306 42.4503 5.96226 43.3951 9.02761 44.1177C12.0705 44.8736 15.1695 45.4071 18.2686 45.7406C19.8181 45.9518 21.3788 45.9741 22.9171 46.1186C24.4779 46.1297 26.0274 46.252 27.5769 46.163L29.9012 46.1074C30.6759 46.0963 31.4507 45.9963 32.2254 45.9518C33.0002 45.8851 33.7749 45.8518 34.5385 45.7517L36.8403 45.4294C39.9281 45.0959 42.9261 44.3845 45.9128 43.5285C48.9333 42.7059 51.7853 41.6165 54.8057 40.4827C57.8935 39.36 61.2396 38.6263 64.6305 38.982C66.3036 39.1932 67.9878 39.7268 69.3577 40.705C70.7388 41.6721 71.7269 43.0505 72.3556 44.4956C71.4125 43.2061 70.2335 42.1501 68.8748 41.4943C67.5162 40.8384 66.0228 40.5716 64.5407 40.6161C61.5427 40.6606 58.5896 41.6499 55.8162 42.8949C52.9979 44.2733 49.9438 45.5183 46.8672 46.5521C43.7682 47.5414 40.5681 48.3307 37.3231 48.7308C30.8668 49.5757 24.2533 49.5868 17.8756 48.3084C14.6755 47.7304 11.554 46.83 8.53355 45.685C5.53558 44.4956 2.60498 43.1061 0 41.2275Z" fill="#FEBA66"/>
<path d="M3.42 30.8916L1.2 28.6716V18.3716L3.42 16.1516H10.38L12.4 18.1716L10.82 19.7716L9.36 18.3516H4.58L3.7 19.2316L3.72 27.8116L4.58 28.6916H9.54L11 27.2516L12.58 28.8716L10.56 30.8916H3.42ZM16.6083 30.8916L14.3883 28.6716V20.4316H16.8083V28.0916L17.6483 29.0116H19.6683L21.7883 26.9316V20.4316H24.2083V30.8916H21.7883V29.3916L20.2683 30.8916H16.6083ZM27.2031 30.8916V20.4316H29.6231V22.2916L31.5031 20.4316H33.8631V22.8516H31.5231L29.6231 24.7516V30.8916H27.2031ZM35.5625 30.8916V20.4316H37.9825V22.2916L39.8625 20.4316H42.2225V22.8516H39.8825L37.9825 24.7516V30.8916H35.5625ZM45.727 30.8916L43.507 28.6716V22.6716L45.727 20.4316H50.527L52.747 22.6716V26.5516H45.927V28.0316L46.807 28.9116H52.567V30.8916H45.727ZM45.927 24.6916H50.327V23.1916L49.447 22.3116H46.807L45.927 23.1916V24.6916ZM55.543 30.8916V20.4316H57.963V22.2916L59.843 20.4316H63.583L65.803 22.6716V30.8916H63.383V23.2316L62.543 22.3116H60.423L57.963 24.7516V30.8916H55.543ZM70.727 30.8916L68.507 28.6716V22.6716L70.727 20.4316H75.727L77.727 22.3916V24.3516H75.307V23.1916L74.427 22.3116H71.807L70.927 23.1916V28.0316L71.807 28.9116H77.647V30.8916H70.727ZM81.6208 34.6316L83.4608 30.2916H82.5408L78.5008 20.4316H81.1608L83.9608 27.9116H84.4408L87.2408 20.4316H89.9008L84.0608 34.6316H81.6208ZM98.4238 30.8916L95.0438 16.1516H97.7038L100.064 28.5116H100.544L102.904 16.1516H105.144L107.504 28.5116H107.984L110.344 16.1516H113.004L109.604 30.8916H105.824L104.024 21.5916L102.224 30.8916H98.4238ZM115.359 30.8916L113.139 28.6716V26.4116L115.359 24.1716H120.419V23.2916L119.539 22.4116H114.519V20.4316H120.619L122.839 22.6716V30.8916H120.419V29.3716L118.879 30.8916H115.359ZM116.439 29.0316L118.319 29.0116L120.419 26.9116V26.0516H116.439L115.559 26.9316V28.1316L116.439 29.0316ZM128.41 30.8916L123.93 20.4316H126.59L129.61 28.5116H130.09L133.11 20.4316H135.77L131.27 30.8916H128.41ZM138.989 30.8916L136.769 28.6716V22.6716L138.989 20.4316H143.789L146.009 22.6716V26.5516H139.189V28.0316L140.069 28.9116H145.829V30.8916H138.989ZM139.189 24.6916H143.589V23.1916L142.709 22.3116H140.069L139.189 23.1916V24.6916Z" fill="#263238"/>
</svg>
