<svg width="114" height="36" viewBox="0 0 114 36" fill="none" xmlns="http://www.w3.org/2000/svg">
<path d="M32.5352 17.2256C32.5967 16.6279 32.6274 15.9424 32.6274 15.1689C32.6274 13.9385 32.5615 12.4092 32.4297 10.5811C34.0732 10.6338 36.855 10.6602 40.7749 10.6602C44.6948 10.6602 47.4678 10.6338 49.0938 10.5811C48.9619 12.4092 48.896 13.9385 48.896 15.1689C48.896 15.9424 48.9268 16.6279 48.9883 17.2256H48.3687C48.0698 15.7227 47.7051 14.5361 47.2744 13.666C46.8438 12.7871 46.3252 12.1587 45.7188 11.7808C45.1211 11.394 44.3916 11.2007 43.5303 11.2007H42.9106V26.6255C42.9106 27.3726 42.9854 27.9175 43.1348 28.2603C43.293 28.603 43.5654 28.8359 43.9521 28.959C44.3477 29.082 44.9629 29.1479 45.7979 29.1567V29.6973C43.5303 29.6445 41.8208 29.6182 40.6694 29.6182C39.5356 29.6182 37.8877 29.6445 35.7256 29.6973V29.1567C36.5693 29.1479 37.1846 29.082 37.5713 28.959C37.9668 28.8359 38.2393 28.603 38.3887 28.2603C38.5381 27.9175 38.6128 27.3726 38.6128 26.6255V11.2007H38.0195C37.1494 11.2007 36.4111 11.3896 35.8047 11.7676C35.207 12.1455 34.6929 12.7739 34.2622 13.6528C33.8315 14.5229 33.4624 15.7139 33.1548 17.2256H32.5352ZM57.2017 18.3066C57.2017 17.5596 57.0215 16.9707 56.6611 16.54C56.3096 16.1094 55.7559 15.894 55 15.894C54.6484 15.894 54.2969 15.9512 53.9453 16.0654C53.5938 16.1709 53.3037 16.3335 53.0752 16.5532C53.5762 16.7202 53.9673 16.9839 54.2485 17.3442C54.5298 17.6958 54.6704 18.1396 54.6704 18.6758C54.6704 19.0449 54.5781 19.3789 54.3936 19.6777C54.2178 19.9678 53.9629 20.2007 53.6289 20.3765C53.2949 20.5435 52.9126 20.627 52.4819 20.627C51.9019 20.627 51.436 20.4292 51.0845 20.0337C50.7417 19.6382 50.5703 19.1416 50.5703 18.5439C50.5703 17.6123 51.0713 16.8564 52.0732 16.2764C53.1719 15.6699 54.543 15.3667 56.1865 15.3667C58.0322 15.3667 59.3462 15.771 60.1284 16.5796C60.5063 16.9575 60.7612 17.4277 60.8931 17.9902C61.0249 18.5527 61.0908 19.3394 61.0908 20.3501V27.6934C61.0908 28.1328 61.1304 28.4448 61.2095 28.6294C61.2974 28.8052 61.4468 28.8931 61.6577 28.8931C61.9478 28.8931 62.2817 28.7393 62.6597 28.4316L62.9365 28.8931C62.5234 29.2358 62.0752 29.4863 61.5918 29.6445C61.1084 29.8027 60.5283 29.8818 59.8516 29.8818C58.9375 29.8818 58.2783 29.6797 57.874 29.2754C57.4697 28.8711 57.2676 28.3438 57.2676 27.6934C56.8281 28.4229 56.2524 28.9722 55.5405 29.3413C54.8286 29.7017 54.0684 29.8818 53.2598 29.8818C52.2314 29.8818 51.4053 29.6138 50.7812 29.0776C50.166 28.5327 49.8584 27.7769 49.8584 26.8101C49.8584 25.8696 50.166 25.0918 50.7812 24.4766C51.3965 23.8613 52.3501 23.3164 53.6421 22.8418C53.7827 22.7891 54.2397 22.6177 55.0132 22.3276C55.7866 22.0288 56.3447 21.7256 56.6875 21.418C57.0303 21.1104 57.2017 20.772 57.2017 20.4028V18.3066ZM57.2017 21.5103C57.0874 21.7036 56.8984 21.9058 56.6348 22.1167C56.3799 22.3188 56.0107 22.5693 55.5273 22.8682C54.9561 23.2637 54.5078 23.7119 54.1826 24.2129C53.8574 24.7051 53.6948 25.3203 53.6948 26.0586C53.6948 26.7617 53.8486 27.2891 54.1562 27.6406C54.4639 27.9834 54.8682 28.1548 55.3691 28.1548C56.0811 28.1548 56.6919 27.7856 57.2017 27.0474V21.5103ZM69.3438 17.9507C69.6865 17.186 70.1787 16.5664 70.8203 16.0918C71.4707 15.6084 72.2046 15.3667 73.022 15.3667C73.5669 15.3667 74.0239 15.4854 74.3931 15.7227C74.7622 15.96 75.0347 16.2676 75.2104 16.6455C75.3862 17.0146 75.4741 17.4146 75.4741 17.8452C75.4741 18.5132 75.2808 19.0581 74.894 19.48C74.5073 19.9019 73.9976 20.1128 73.3647 20.1128C72.7495 20.1128 72.2617 19.959 71.9014 19.6514C71.5498 19.335 71.374 18.9131 71.374 18.3857C71.374 17.5244 71.7695 16.8213 72.5605 16.2764C72.4463 16.25 72.3364 16.2368 72.231 16.2368C72.1079 16.2368 71.9673 16.2588 71.8091 16.3027C71.3521 16.373 70.9346 16.5928 70.5566 16.9619C70.1787 17.3223 69.8799 17.7573 69.6602 18.2671C69.4492 18.7769 69.3438 19.2734 69.3438 19.7568V26.9155C69.3438 27.7505 69.5459 28.3306 69.9502 28.6558C70.3545 28.9722 71.0005 29.1304 71.8882 29.1304V29.6973C69.6382 29.627 68.2056 29.5918 67.5903 29.5918C67.019 29.5918 65.7314 29.627 63.7275 29.6973V29.1304C64.1582 29.1304 64.4966 29.0732 64.7427 28.959C64.9976 28.8447 65.1777 28.647 65.2832 28.3657C65.3975 28.0845 65.4546 27.6934 65.4546 27.1924V18.6758C65.4546 17.8408 65.3271 17.2388 65.0723 16.8696C64.8174 16.4917 64.3691 16.3027 63.7275 16.3027V15.7358C64.2988 15.7886 64.8569 15.8149 65.4019 15.8149C66.9927 15.8149 68.3066 15.6919 69.3438 15.4458V17.9507ZM86.377 26.2432C87.458 26.2432 88.3325 26.4717 89.0005 26.9287C89.6772 27.377 90.0156 28.1108 90.0156 29.1304C90.0156 30.0532 89.7256 30.9453 89.1455 31.8066C88.5654 32.6768 87.6865 33.3887 86.5088 33.9424C85.3311 34.4961 83.894 34.7729 82.1978 34.7729C80.8794 34.7729 79.772 34.6675 78.8755 34.4565C77.9878 34.2544 77.3242 33.9775 76.8848 33.626C76.4453 33.2744 76.2256 32.8745 76.2256 32.4263C76.2256 31.9429 76.4058 31.5825 76.7661 31.3452C77.1353 31.1079 77.7329 30.8574 78.5591 30.5938C79.3853 30.3301 79.9697 30.0752 80.3125 29.8291H79.6797C78.9326 29.8291 78.2427 29.6489 77.6099 29.2886C76.9771 28.9282 76.6606 28.2734 76.6606 27.3242C76.6606 26.8057 76.7661 26.3398 76.9771 25.9268C77.1968 25.5049 77.5527 25.105 78.0449 24.7271C78.5459 24.3403 79.2183 23.9448 80.062 23.5405C79.1392 23.2241 78.4185 22.7451 77.8999 22.1035C77.3813 21.4531 77.1221 20.6357 77.1221 19.6514C77.1221 18.2275 77.6494 17.1597 78.7041 16.4478C79.7676 15.7271 81.1738 15.3667 82.9229 15.3667C83.6436 15.3667 84.3115 15.4282 84.9268 15.5513C84.9004 15.0942 84.9355 14.6416 85.0322 14.1934C85.1201 13.4463 85.375 12.8486 85.7969 12.4004C86.2188 11.9434 86.8164 11.7148 87.5898 11.7148C88.1611 11.7148 88.6313 11.8687 89.0005 12.1763C89.3784 12.4751 89.5674 12.8706 89.5674 13.3628C89.5674 13.8198 89.3872 14.1978 89.0269 14.4966C88.6753 14.7866 88.2314 14.9316 87.6953 14.9316C87.1504 14.9316 86.7241 14.8042 86.4165 14.5493C86.1089 14.2944 85.8716 13.9165 85.7046 13.4155C85.5112 13.7407 85.375 14.2021 85.2959 14.7998C85.2871 14.8877 85.2827 15.0195 85.2827 15.1953C85.2827 15.3887 85.2871 15.5337 85.2959 15.6304C86.3682 15.9028 87.2075 16.3774 87.814 17.0542C88.4204 17.7222 88.7236 18.5879 88.7236 19.6514C88.7236 20.6094 88.4731 21.4092 87.9722 22.0508C87.48 22.6924 86.7988 23.1714 85.9287 23.4878C85.0586 23.7954 84.0566 23.9492 82.9229 23.9492C82.0703 23.9492 81.2925 23.8613 80.5894 23.6855C80.0708 23.9844 79.6841 24.2568 79.4292 24.5029C79.1831 24.749 79.0601 25.0303 79.0601 25.3467C79.0601 25.9443 79.4204 26.2432 80.1411 26.2432H86.377ZM82.9229 15.8413C82.334 15.8413 81.8857 16.1313 81.5781 16.7114C81.2705 17.2915 81.1167 18.2715 81.1167 19.6514C81.1167 21.0312 81.2705 22.0112 81.5781 22.5913C81.8857 23.1714 82.334 23.4614 82.9229 23.4614C83.5205 23.4614 83.9688 23.1714 84.2676 22.5913C84.5752 22.0112 84.729 21.0312 84.729 19.6514C84.729 18.2715 84.5752 17.2915 84.2676 16.7114C83.9688 16.1313 83.5205 15.8413 82.9229 15.8413ZM80.8267 29.8291C80.5278 30.1104 80.2949 30.4575 80.1279 30.8706C79.9697 31.2837 79.8906 31.6572 79.8906 31.9912C79.8906 32.7383 80.1719 33.3096 80.7344 33.7051C81.3057 34.1094 82.0352 34.3115 82.9229 34.3115C83.6523 34.3115 84.3291 34.1753 84.9531 33.9028C85.5859 33.6392 86.0869 33.2524 86.4561 32.7427C86.834 32.2329 87.0229 31.6396 87.0229 30.9629C87.0229 30.5762 86.9087 30.2905 86.6802 30.106C86.4517 29.9214 86.043 29.8291 85.4541 29.8291H80.8267ZM95.4604 21.3521C95.4341 21.6157 95.4209 22.0376 95.4209 22.6177C95.4209 23.813 95.5879 24.8062 95.9219 25.5972C96.2559 26.3794 96.6865 26.9551 97.2139 27.3242C97.75 27.6846 98.3213 27.8647 98.9277 27.8647C100.413 27.8647 101.604 27.144 102.5 25.7026L102.975 25.8608C102.747 26.5991 102.391 27.2891 101.907 27.9307C101.433 28.5635 100.826 29.082 100.088 29.4863C99.3584 29.8818 98.5234 30.0796 97.583 30.0796C96.3438 30.0796 95.2539 29.8159 94.3135 29.2886C93.3818 28.7612 92.6523 27.9614 92.125 26.8892C91.6064 25.8081 91.3472 24.4678 91.3472 22.8682C91.3472 21.2334 91.6284 19.8579 92.1909 18.7417C92.7534 17.6167 93.5312 16.7729 94.5244 16.2104C95.5176 15.6479 96.6646 15.3667 97.9653 15.3667C101.349 15.3667 103.041 17.3618 103.041 21.3521H95.4604ZM99.6396 20.8379C99.666 19.4316 99.521 18.2627 99.2046 17.3311C98.897 16.3994 98.4268 15.9336 97.7939 15.9336C97.1523 15.9336 96.6162 16.3335 96.1855 17.1333C95.7637 17.9243 95.5044 19.1592 95.4077 20.8379H99.6396ZM113.285 15.7622V16.3027H110.094V27.1924C110.094 27.7285 110.191 28.1108 110.384 28.3394C110.578 28.5591 110.876 28.6689 111.281 28.6689C112.045 28.6689 112.656 28.1284 113.113 27.0474L113.575 27.2979C112.898 29.1523 111.667 30.0796 109.883 30.0796C108.697 30.0796 107.796 29.772 107.181 29.1567C106.803 28.7876 106.543 28.3218 106.403 27.7593C106.271 27.188 106.205 26.4014 106.205 25.3994V16.3027H103.938V15.7622H106.205V12.1763C107.69 12.1763 108.987 11.8862 110.094 11.3062V15.7622H113.285Z" fill="#263238"/>
<rect x="0.770508" y="5.69727" width="26" height="26" rx="5" fill="#FFB6D3"/>
<circle cx="13.7705" cy="18.6973" r="5" fill="#FF5196"/>
<path d="M13.7705 13.0973V11.6973M13.7705 25.6973V24.2973M19.3705 18.6973H20.7705M6.77051 18.6973H8.17051M13.7705 13.6573C12.7737 13.6573 11.7993 13.9529 10.9704 14.5067C10.1416 15.0605 9.49562 15.8476 9.11415 16.7685C8.73269 17.6895 8.63288 18.7029 8.82735 19.6805C9.02182 20.6582 9.50183 21.5562 10.2067 22.2611C10.9115 22.9659 11.8096 23.446 12.7873 23.6404C13.7649 23.8349 14.7783 23.7351 15.6992 23.3536C16.6202 22.9722 17.4073 22.3262 17.9611 21.4973C18.5149 20.6685 18.8105 19.6941 18.8105 18.6973C18.8105 17.3606 18.2795 16.0786 17.3343 15.1334C16.3891 14.1883 15.1072 13.6573 13.7705 13.6573Z" stroke="white" stroke-width="2" stroke-linecap="square" stroke-linejoin="round"/>
</svg>
