<svg width="97" height="30" viewBox="0 0 97 30" fill="none" xmlns="http://www.w3.org/2000/svg">
<path d="M10.88 24.0274C7.5 24.0274 4.92 23.0874 3.14 21.2074C1.38 19.3274 0.5 16.6574 0.5 13.1974C0.5 11.4774 0.77 9.94742 1.31 8.60742C1.85 7.24742 2.59 6.10742 3.53 5.18742C4.47 4.24742 5.59 3.53742 6.89 3.05742C8.19 2.57742 9.6 2.33742 11.12 2.33742C12 2.33742 12.8 2.40742 13.52 2.54742C14.24 2.66742 14.87 2.81742 15.41 2.99742C15.95 3.15742 16.4 3.32742 16.76 3.50742C17.12 3.68742 17.38 3.82742 17.54 3.92742L16.19 7.70742C15.55 7.36742 14.8 7.07742 13.94 6.83742C13.1 6.59742 12.14 6.47742 11.06 6.47742C10.34 6.47742 9.63 6.59742 8.93 6.83742C8.25 7.07742 7.64 7.46742 7.1 8.00742C6.58 8.52742 6.16 9.20742 5.84 10.0474C5.52 10.8874 5.36 11.9074 5.36 13.1074C5.36 14.0674 5.46 14.9674 5.66 15.8074C5.88 16.6274 6.22 17.3374 6.68 17.9374C7.16 18.5374 7.78 19.0174 8.54 19.3774C9.3 19.7174 10.22 19.8874 11.3 19.8874C11.98 19.8874 12.59 19.8474 13.13 19.7674C13.67 19.6874 14.15 19.5974 14.57 19.4974C14.99 19.3774 15.36 19.2474 15.68 19.1074C16 18.9674 16.29 18.8374 16.55 18.7174L17.84 22.4674C17.18 22.8674 16.25 23.2274 15.05 23.5474C13.85 23.8674 12.46 24.0274 10.88 24.0274ZM34.9616 15.6874C34.9616 16.9274 34.7816 18.0674 34.4216 19.1074C34.0616 20.1274 33.5416 21.0074 32.8616 21.7474C32.1816 22.4674 31.3616 23.0274 30.4016 23.4274C29.4616 23.8274 28.4016 24.0274 27.2216 24.0274C26.0616 24.0274 25.0016 23.8274 24.0416 23.4274C23.1016 23.0274 22.2916 22.4674 21.6116 21.7474C20.9316 21.0074 20.4016 20.1274 20.0216 19.1074C19.6416 18.0674 19.4516 16.9274 19.4516 15.6874C19.4516 14.4474 19.6416 13.3174 20.0216 12.2974C20.4216 11.2774 20.9616 10.4074 21.6416 9.68742C22.3416 8.96742 23.1616 8.40742 24.1016 8.00742C25.0616 7.60742 26.1016 7.40742 27.2216 7.40742C28.3616 7.40742 29.4016 7.60742 30.3416 8.00742C31.3016 8.40742 32.1216 8.96742 32.8016 9.68742C33.4816 10.4074 34.0116 11.2774 34.3916 12.2974C34.7716 13.3174 34.9616 14.4474 34.9616 15.6874ZM30.4016 15.6874C30.4016 14.3074 30.1216 13.2274 29.5616 12.4474C29.0216 11.6474 28.2416 11.2474 27.2216 11.2474C26.2016 11.2474 25.4116 11.6474 24.8516 12.4474C24.2916 13.2274 24.0116 14.3074 24.0116 15.6874C24.0116 17.0674 24.2916 18.1674 24.8516 18.9874C25.4116 19.7874 26.2016 20.1874 27.2216 20.1874C28.2416 20.1874 29.0216 19.7874 29.5616 18.9874C30.1216 18.1674 30.4016 17.0674 30.4016 15.6874ZM42.8942 23.6074H38.4242V7.82742H42.8942V23.6074ZM43.3142 3.26742C43.3142 4.08742 43.0442 4.73742 42.5042 5.21742C41.9842 5.67742 41.3642 5.90742 40.6442 5.90742C39.9242 5.90742 39.2942 5.67742 38.7542 5.21742C38.2342 4.73742 37.9742 4.08742 37.9742 3.26742C37.9742 2.44742 38.2342 1.80742 38.7542 1.34742C39.2942 0.867421 39.9242 0.627421 40.6442 0.627421C41.3642 0.627421 41.9842 0.867421 42.5042 1.34742C43.0442 1.80742 43.3142 2.44742 43.3142 3.26742ZM47.0961 8.36742C47.8561 8.14742 48.8361 7.94742 50.0361 7.76742C51.2361 7.56742 52.4961 7.46742 53.8161 7.46742C55.1561 7.46742 56.2661 7.64742 57.1461 8.00742C58.0461 8.34742 58.7561 8.83742 59.2761 9.47742C59.7961 10.1174 60.1661 10.8774 60.3861 11.7574C60.6061 12.6374 60.7161 13.6174 60.7161 14.6974V23.6074H56.2461V15.2374C56.2461 13.7974 56.0561 12.7774 55.6761 12.1774C55.2961 11.5774 54.5861 11.2774 53.5461 11.2774C53.2261 11.2774 52.8861 11.2974 52.5261 11.3374C52.1661 11.3574 51.8461 11.3874 51.5661 11.4274V23.6074H47.0961V8.36742Z" fill="#263238"/>
<path d="M71.0321 12.6274L74.1521 7.82742H78.7721L73.3721 15.4174C74.5721 16.9174 75.6621 18.3774 76.6421 19.7974C77.6221 21.2174 78.4021 22.4874 78.9821 23.6074H74.1821C74.0221 23.3074 73.8221 22.9374 73.5821 22.4974C73.3421 22.0374 73.0721 21.5674 72.7721 21.0874C72.4721 20.5874 72.1521 20.0974 71.8121 19.6174C71.4921 19.1174 71.1721 18.6674 70.8521 18.2674C70.5521 18.6474 70.2421 19.0674 69.9221 19.5274C69.6221 19.9874 69.3321 20.4574 69.0521 20.9374C68.7721 21.3974 68.4921 21.8574 68.2121 22.3174C67.9521 22.7774 67.7221 23.2074 67.5221 23.6074H62.9621C63.2021 23.1074 63.5321 22.5174 63.9521 21.8374C64.3721 21.1574 64.8221 20.4574 65.3021 19.7374C65.8021 18.9974 66.3221 18.2674 66.8621 17.5474C67.4021 16.8074 67.9321 16.1174 68.4521 15.4774C67.5521 14.2174 66.6521 12.9474 65.7521 11.6674C64.8521 10.3674 63.9621 9.08742 63.0821 7.82742H67.9121L71.0321 12.6274ZM96.1159 7.82742C95.2159 10.8674 94.2759 13.7174 93.2959 16.3774C92.3159 19.0374 91.2459 21.6174 90.0859 24.1174C89.6659 25.0174 89.2459 25.7774 88.8259 26.3974C88.4059 27.0374 87.9459 27.5574 87.4459 27.9574C86.9459 28.3774 86.3759 28.6774 85.7359 28.8574C85.1159 29.0574 84.3859 29.1574 83.5459 29.1574C82.8459 29.1574 82.1959 29.0874 81.5959 28.9474C81.0159 28.8274 80.5359 28.6874 80.1559 28.5274L80.9359 24.9574C81.3959 25.1174 81.8059 25.2274 82.1659 25.2874C82.5259 25.3474 82.9059 25.3774 83.3059 25.3774C84.1059 25.3774 84.7159 25.1574 85.1359 24.7174C85.5759 24.2974 85.9459 23.7074 86.2459 22.9474C85.2259 20.9474 84.2059 18.7074 83.1859 16.2274C82.1659 13.7274 81.2059 10.9274 80.3059 7.82742H85.0459C85.2459 8.60742 85.4759 9.45742 85.7359 10.3774C86.0159 11.2774 86.3059 12.1974 86.6059 13.1374C86.9059 14.0574 87.2059 14.9574 87.5059 15.8374C87.8259 16.7174 88.1259 17.5174 88.4059 18.2374C88.6659 17.5174 88.9359 16.7174 89.2159 15.8374C89.4959 14.9574 89.7659 14.0574 90.0259 13.1374C90.3059 12.1974 90.5659 11.2774 90.8059 10.3774C91.0659 9.45742 91.2959 8.60742 91.4959 7.82742H96.1159Z" fill="#7782FF"/>
</svg>
