<svg width="127" height="49" viewBox="0 0 127 49" fill="none" xmlns="http://www.w3.org/2000/svg">
<path d="M9.32851 12.8533C9.23517 12.6293 9.10917 12.3446 8.95051 11.9993C8.80117 11.6539 8.63784 11.2806 8.46051 10.8793C8.28317 10.4779 8.09184 10.0673 7.88651 9.64727C7.69051 9.21793 7.50384 8.8166 7.32651 8.44327C7.14917 8.0606 6.98117 7.71993 6.82251 7.42127C6.67317 7.1226 6.55184 6.89393 6.45851 6.73526C6.35584 7.8366 6.27184 9.03127 6.20651 10.3193C6.14117 11.5979 6.08517 12.8906 6.03851 14.1973H4.70851C4.74584 13.3573 4.78784 12.5126 4.83451 11.6633C4.88117 10.8046 4.93251 9.9646 4.98851 9.14327C5.05384 8.3126 5.11917 7.50527 5.18451 6.72127C5.25917 5.93727 5.33851 5.19527 5.42251 4.49527H6.61251C6.86451 4.90593 7.13517 5.39126 7.42451 5.95126C7.71384 6.51126 8.00317 7.09927 8.29251 7.71527C8.58184 8.32193 8.86184 8.93327 9.13251 9.54927C9.40317 10.1559 9.65051 10.7113 9.87451 11.2153C10.0985 10.7113 10.3458 10.1559 10.6165 9.54927C10.8872 8.93327 11.1672 8.32193 11.4565 7.71527C11.7458 7.09927 12.0352 6.51126 12.3245 5.95126C12.6138 5.39126 12.8845 4.90593 13.1365 4.49527H14.3265C14.6438 7.62193 14.8818 10.8559 15.0405 14.1973H13.7105C13.6638 12.8906 13.6078 11.5979 13.5425 10.3193C13.4772 9.03127 13.3932 7.8366 13.2905 6.73526C13.1972 6.89393 13.0712 7.1226 12.9125 7.42127C12.7632 7.71993 12.5998 8.0606 12.4225 8.44327C12.2452 8.8166 12.0538 9.21793 11.8485 9.64727C11.6525 10.0673 11.4658 10.4779 11.2885 10.8793C11.1112 11.2806 10.9432 11.6539 10.7845 11.9993C10.6352 12.3446 10.5138 12.6293 10.4205 12.8533H9.32851ZM23.5118 10.5573C23.5118 11.1359 23.4278 11.6586 23.2598 12.1253C23.0918 12.5919 22.8538 12.9933 22.5458 13.3293C22.2472 13.6653 21.8878 13.9266 21.4678 14.1133C21.0478 14.2906 20.5905 14.3793 20.0958 14.3793C19.6012 14.3793 19.1438 14.2906 18.7238 14.1133C18.3038 13.9266 17.9398 13.6653 17.6318 13.3293C17.3332 12.9933 17.0998 12.5919 16.9318 12.1253C16.7638 11.6586 16.6798 11.1359 16.6798 10.5573C16.6798 9.98793 16.7638 9.46993 16.9318 9.00327C17.0998 8.52727 17.3332 8.12127 17.6318 7.78527C17.9398 7.44927 18.3038 7.1926 18.7238 7.01527C19.1438 6.8286 19.6012 6.73526 20.0958 6.73526C20.5905 6.73526 21.0478 6.8286 21.4678 7.01527C21.8878 7.1926 22.2472 7.44927 22.5458 7.78527C22.8538 8.12127 23.0918 8.52727 23.2598 9.00327C23.4278 9.46993 23.5118 9.98793 23.5118 10.5573ZM22.1538 10.5573C22.1538 9.73593 21.9672 9.08727 21.5938 8.61127C21.2298 8.12593 20.7305 7.88327 20.0958 7.88327C19.4612 7.88327 18.9572 8.12593 18.5838 8.61127C18.2198 9.08727 18.0378 9.73593 18.0378 10.5573C18.0378 11.3786 18.2198 12.0319 18.5838 12.5173C18.9572 12.9933 19.4612 13.2313 20.0958 13.2313C20.7305 13.2313 21.2298 12.9933 21.5938 12.5173C21.9672 12.0319 22.1538 11.3786 22.1538 10.5573ZM30.0476 8.45727C29.889 8.3266 29.6603 8.2006 29.3616 8.07927C29.063 7.95793 28.7363 7.89727 28.3816 7.89727C28.0083 7.89727 27.6863 7.96727 27.4156 8.10727C27.1543 8.23793 26.9396 8.4246 26.7716 8.66727C26.6036 8.9006 26.4823 9.1806 26.4076 9.50727C26.333 9.83393 26.2956 10.1839 26.2956 10.5573C26.2956 11.4066 26.5056 12.0646 26.9256 12.5313C27.3456 12.9886 27.9056 13.2173 28.6056 13.2173C28.9603 13.2173 29.2543 13.2033 29.4876 13.1753C29.7303 13.1379 29.917 13.1006 30.0476 13.0633V8.45727ZM30.0476 3.55726L31.3496 3.33327V13.9873C31.051 14.0713 30.6683 14.1553 30.2016 14.2393C29.735 14.3233 29.1983 14.3653 28.5916 14.3653C28.0316 14.3653 27.5276 14.2766 27.0796 14.0993C26.6316 13.9219 26.249 13.6699 25.9316 13.3433C25.6143 13.0166 25.367 12.6199 25.1896 12.1533C25.0216 11.6773 24.9376 11.1453 24.9376 10.5573C24.9376 9.99727 25.0076 9.48393 25.1476 9.01727C25.297 8.5506 25.5116 8.14927 25.7916 7.81327C26.0716 7.47727 26.4123 7.21593 26.8136 7.02927C27.2243 6.8426 27.691 6.74927 28.2136 6.74927C28.6336 6.74927 29.0023 6.80527 29.3196 6.91727C29.6463 7.02927 29.889 7.1366 30.0476 7.23927V3.55726ZM33.1818 10.5713C33.1818 9.92727 33.2751 9.36727 33.4618 8.89127C33.6484 8.40593 33.8958 8.0046 34.2038 7.68727C34.5118 7.36993 34.8664 7.13193 35.2678 6.97327C35.6691 6.8146 36.0798 6.73526 36.4998 6.73526C37.4798 6.73526 38.2311 7.04327 38.7538 7.65927C39.2764 8.26593 39.5378 9.1946 39.5378 10.4453C39.5378 10.5013 39.5378 10.5759 39.5378 10.6693C39.5378 10.7533 39.5331 10.8326 39.5238 10.9073H34.5398C34.5958 11.6633 34.8151 12.2373 35.1978 12.6293C35.5804 13.0213 36.1778 13.2173 36.9898 13.2173C37.4471 13.2173 37.8298 13.1799 38.1378 13.1053C38.4551 13.0213 38.6931 12.9419 38.8518 12.8673L39.0338 13.9593C38.8751 14.0433 38.5951 14.1319 38.1938 14.2253C37.8018 14.3186 37.3538 14.3653 36.8498 14.3653C36.2151 14.3653 35.6644 14.2719 35.1978 14.0853C34.7404 13.8893 34.3624 13.6233 34.0638 13.2873C33.7651 12.9513 33.5411 12.5546 33.3918 12.0973C33.2518 11.6306 33.1818 11.1219 33.1818 10.5713ZM38.1798 9.85727C38.1891 9.26927 38.0398 8.7886 37.7318 8.41527C37.4331 8.0326 37.0178 7.84127 36.4858 7.84127C36.1871 7.84127 35.9211 7.90193 35.6878 8.02327C35.4638 8.13527 35.2724 8.2846 35.1138 8.47127C34.9551 8.65793 34.8291 8.8726 34.7358 9.11527C34.6518 9.35793 34.5958 9.60527 34.5678 9.85727H38.1798ZM44.0961 6.76327C44.2081 6.76327 44.3341 6.7726 44.4741 6.79127C44.6234 6.8006 44.7681 6.81927 44.9081 6.84727C45.0481 6.86593 45.1741 6.88927 45.2861 6.91727C45.4074 6.93593 45.4961 6.9546 45.5521 6.97327L45.3281 8.10727C45.2254 8.06993 45.0528 8.02793 44.8101 7.98127C44.5768 7.92527 44.2734 7.89727 43.9001 7.89727C43.6574 7.89727 43.4148 7.92527 43.1721 7.98127C42.9388 8.02793 42.7848 8.0606 42.7101 8.07927V14.1973H41.4081V7.22527C41.7161 7.11327 42.0988 7.0106 42.5561 6.91727C43.0134 6.8146 43.5268 6.76327 44.0961 6.76327ZM46.8085 7.12727C47.1071 7.0526 47.5038 6.97327 47.9985 6.88927C48.4931 6.80527 49.0625 6.76327 49.7065 6.76327C50.2851 6.76327 50.7658 6.84727 51.1485 7.01527C51.5311 7.17393 51.8345 7.4026 52.0585 7.70127C52.2918 7.9906 52.4551 8.3406 52.5485 8.75127C52.6418 9.16193 52.6885 9.6146 52.6885 10.1093V14.1973H51.3865V10.3893C51.3865 9.94127 51.3538 9.5586 51.2885 9.24127C51.2325 8.92393 51.1345 8.66727 50.9945 8.47127C50.8545 8.27527 50.6678 8.13527 50.4345 8.05127C50.2011 7.95793 49.9118 7.91127 49.5665 7.91127C49.4265 7.91127 49.2818 7.91593 49.1325 7.92527C48.9831 7.9346 48.8385 7.9486 48.6985 7.96727C48.5678 7.9766 48.4465 7.9906 48.3345 8.00927C48.2318 8.02793 48.1571 8.04193 48.1105 8.05127V14.1973H46.8085V7.12727Z" fill="#263238"/>
<path d="M12.6505 40.6173C9.27051 40.6173 6.69051 39.6773 4.91051 37.7973C3.15051 35.9173 2.27051 33.2473 2.27051 29.7873C2.27051 28.0673 2.54051 26.5373 3.08051 25.1973C3.62051 23.8373 4.36051 22.6973 5.30051 21.7773C6.24051 20.8373 7.36051 20.1273 8.66051 19.6473C9.96051 19.1673 11.3705 18.9273 12.8905 18.9273C13.7705 18.9273 14.5705 18.9973 15.2905 19.1373C16.0105 19.2573 16.6405 19.4073 17.1805 19.5873C17.7205 19.7473 18.1705 19.9173 18.5305 20.0973C18.8905 20.2773 19.1505 20.4173 19.3105 20.5173L17.9605 24.2973C17.3205 23.9573 16.5705 23.6673 15.7105 23.4273C14.8705 23.1873 13.9105 23.0673 12.8305 23.0673C12.1105 23.0673 11.4005 23.1873 10.7005 23.4273C10.0205 23.6673 9.41051 24.0573 8.87051 24.5973C8.35051 25.1173 7.93051 25.7973 7.61051 26.6373C7.29051 27.4773 7.13051 28.4973 7.13051 29.6973C7.13051 30.6573 7.23051 31.5573 7.43051 32.3973C7.65051 33.2173 7.99051 33.9273 8.45051 34.5273C8.93051 35.1273 9.55051 35.6073 10.3105 35.9673C11.0705 36.3073 11.9905 36.4773 13.0705 36.4773C13.7505 36.4773 14.3605 36.4373 14.9005 36.3573C15.4405 36.2773 15.9205 36.1873 16.3405 36.0873C16.7605 35.9673 17.1305 35.8373 17.4505 35.6973C17.7705 35.5573 18.0605 35.4273 18.3205 35.3073L19.6105 39.0573C18.9505 39.4573 18.0205 39.8173 16.8205 40.1373C15.6205 40.4573 14.2305 40.6173 12.6505 40.6173ZM31.8336 28.3773C31.4336 28.2773 30.9636 28.1773 30.4236 28.0773C29.8836 27.9573 29.3036 27.8973 28.6836 27.8973C28.4036 27.8973 28.0636 27.9273 27.6636 27.9873C27.2836 28.0273 26.9936 28.0773 26.7936 28.1373V40.1973H22.3236V25.2573C23.1236 24.9773 24.0636 24.7173 25.1436 24.4773C26.2436 24.2173 27.4636 24.0873 28.8036 24.0873C29.0436 24.0873 29.3336 24.1073 29.6736 24.1473C30.0136 24.1673 30.3536 24.2073 30.6936 24.2673C31.0336 24.3073 31.3736 24.3673 31.7136 24.4473C32.0536 24.5073 32.3436 24.5873 32.5836 24.6873L31.8336 28.3773ZM49.9274 24.4173C49.0274 27.4573 48.0874 30.3073 47.1074 32.9673C46.1274 35.6273 45.0574 38.2073 43.8974 40.7073C43.4774 41.6073 43.0574 42.3673 42.6374 42.9873C42.2174 43.6273 41.7574 44.1473 41.2574 44.5473C40.7574 44.9673 40.1874 45.2673 39.5474 45.4473C38.9274 45.6473 38.1974 45.7473 37.3574 45.7473C36.6574 45.7473 36.0074 45.6773 35.4074 45.5373C34.8274 45.4173 34.3474 45.2773 33.9674 45.1173L34.7474 41.5473C35.2074 41.7073 35.6174 41.8173 35.9774 41.8773C36.3374 41.9373 36.7174 41.9673 37.1174 41.9673C37.9174 41.9673 38.5274 41.7473 38.9474 41.3073C39.3874 40.8873 39.7574 40.2973 40.0574 39.5373C39.0374 37.5373 38.0174 35.2973 36.9974 32.8173C35.9774 30.3173 35.0174 27.5173 34.1174 24.4173H38.8574C39.0574 25.1973 39.2874 26.0473 39.5474 26.9673C39.8274 27.8673 40.1174 28.7873 40.4174 29.7273C40.7174 30.6473 41.0174 31.5473 41.3174 32.4273C41.6374 33.3073 41.9374 34.1073 42.2174 34.8273C42.4774 34.1073 42.7474 33.3073 43.0274 32.4273C43.3074 31.5473 43.5774 30.6473 43.8374 29.7273C44.1174 28.7873 44.3774 27.8673 44.6174 26.9673C44.8774 26.0473 45.1074 25.1973 45.3074 24.4173H49.9274ZM62.4336 32.4273C62.4336 31.0473 62.1236 29.9473 61.5036 29.1273C60.8836 28.2873 59.9636 27.8673 58.7436 27.8673C58.3436 27.8673 57.9736 27.8873 57.6336 27.9273C57.2936 27.9473 57.0136 27.9773 56.7936 28.0173V36.0873C57.0736 36.2673 57.4336 36.4173 57.8736 36.5373C58.3336 36.6573 58.7936 36.7173 59.2536 36.7173C61.3736 36.7173 62.4336 35.2873 62.4336 32.4273ZM66.9936 32.3073C66.9936 33.5273 66.8436 34.6373 66.5436 35.6373C66.2436 36.6373 65.8036 37.4973 65.2236 38.2173C64.6436 38.9373 63.9236 39.4973 63.0636 39.8973C62.2036 40.2973 61.2136 40.4973 60.0936 40.4973C59.4736 40.4973 58.8936 40.4373 58.3536 40.3173C57.8136 40.1973 57.2936 40.0273 56.7936 39.8073V45.7473H52.3236V24.9573C52.7236 24.8373 53.1836 24.7273 53.7036 24.6273C54.2236 24.5073 54.7636 24.4073 55.3236 24.3273C55.9036 24.2473 56.4836 24.1873 57.0636 24.1473C57.6636 24.0873 58.2336 24.0573 58.7736 24.0573C60.0736 24.0573 61.2336 24.2573 62.2536 24.6573C63.2736 25.0373 64.1336 25.5873 64.8336 26.3073C65.5336 27.0073 66.0636 27.8673 66.4236 28.8873C66.8036 29.9073 66.9936 31.0473 66.9936 32.3073ZM70.2791 20.4873L74.7491 19.7673V24.4173H80.1191V28.1373H74.7491V33.6873C74.7491 34.6273 74.9091 35.3773 75.2291 35.9373C75.5691 36.4973 76.2391 36.7773 77.2391 36.7773C77.7191 36.7773 78.2091 36.7373 78.7091 36.6573C79.2291 36.5573 79.6991 36.4273 80.1191 36.2673L80.7491 39.7473C80.2091 39.9673 79.6091 40.1573 78.9491 40.3173C78.2891 40.4773 77.4791 40.5573 76.5191 40.5573C75.2991 40.5573 74.2891 40.3973 73.4891 40.0773C72.6891 39.7373 72.0491 39.2773 71.5691 38.6973C71.0891 38.0973 70.7491 37.3773 70.5491 36.5373C70.3691 35.6973 70.2791 34.7673 70.2791 33.7473V20.4873ZM97.9332 32.2773C97.9332 33.5173 97.7532 34.6573 97.3932 35.6973C97.0332 36.7173 96.5132 37.5973 95.8332 38.3373C95.1532 39.0573 94.3332 39.6173 93.3732 40.0173C92.4332 40.4173 91.3732 40.6173 90.1932 40.6173C89.0332 40.6173 87.9732 40.4173 87.0132 40.0173C86.0732 39.6173 85.2632 39.0573 84.5832 38.3373C83.9032 37.5973 83.3732 36.7173 82.9932 35.6973C82.6132 34.6573 82.4232 33.5173 82.4232 32.2773C82.4232 31.0373 82.6132 29.9073 82.9932 28.8873C83.3932 27.8673 83.9332 26.9973 84.6132 26.2773C85.3132 25.5573 86.1332 24.9973 87.0732 24.5973C88.0332 24.1973 89.0732 23.9973 90.1932 23.9973C91.3332 23.9973 92.3732 24.1973 93.3132 24.5973C94.2732 24.9973 95.0932 25.5573 95.7732 26.2773C96.4532 26.9973 96.9832 27.8673 97.3632 28.8873C97.7432 29.9073 97.9332 31.0373 97.9332 32.2773ZM93.3732 32.2773C93.3732 30.8973 93.0932 29.8173 92.5332 29.0373C91.9932 28.2373 91.2132 27.8373 90.1932 27.8373C89.1732 27.8373 88.3832 28.2373 87.8232 29.0373C87.2632 29.8173 86.9832 30.8973 86.9832 32.2773C86.9832 33.6573 87.2632 34.7573 87.8232 35.5773C88.3832 36.3773 89.1732 36.7773 90.1932 36.7773C91.2132 36.7773 91.9932 36.3773 92.5332 35.5773C93.0932 34.7573 93.3732 33.6573 93.3732 32.2773Z" fill="#263238"/>
<path d="M114.771 43.1973V30.2538L104.771 21.1973V43.1973H114.771Z" fill="#27CAEA"/>
<path d="M126.722 42.8834V30.1246L117.065 21.1973V42.8834H126.722Z" fill="#FFB04E"/>
</svg>
