<svg width="134" height="13" viewBox="0 0 134 13" fill="none" xmlns="http://www.w3.org/2000/svg">
<path d="M13.26 3.519H4.012V5.304C4.59 5.31533 5.457 5.321 6.613 5.321C8.60767 5.321 10.6363 5.287 12.699 5.219V8.551C10.6363 8.47167 8.46033 8.432 6.171 8.432C5.219 8.432 4.49933 8.43767 4.012 8.449V12.682H0C0.0906666 10.4833 0.136 8.42633 0.136 6.511C0.136 4.59567 0.0906666 2.53867 0 0.340001H13.26V3.519Z" fill="white"/>
<path d="M28.277 4.454C28.277 5.44 28.0333 6.273 27.546 6.953C27.07 7.633 26.2483 8.126 25.081 8.432C25.217 8.61333 25.3133 8.755 25.37 8.857L28.124 12.682H23.5C23.0013 11.7527 22.2136 10.438 21.137 8.738H18.638V12.682H14.626C14.7166 10.4833 14.762 8.42633 14.762 6.511C14.762 4.59567 14.7166 2.53867 14.626 0.340001H18.638V0.357H22.123C24.4123 0.357 26.0103 0.725334 26.917 1.462C27.8236 2.19867 28.277 3.196 28.277 4.454ZM18.638 3.621V5.559H20.933C21.8963 5.559 22.6216 5.53067 23.109 5.474C23.6076 5.406 23.9533 5.304 24.146 5.168C24.3386 5.032 24.435 4.83367 24.435 4.573C24.435 4.32367 24.3443 4.131 24.163 3.995C23.9816 3.859 23.6416 3.76267 23.143 3.706C22.6443 3.64933 21.9076 3.621 20.933 3.621H18.638Z" fill="white"/>
<path d="M33.6458 9.571C37.9525 9.54833 41.0748 9.486 43.0128 9.384C42.9335 9.84867 42.8825 10.3303 42.8598 10.829C42.8485 11.3163 42.8428 11.934 42.8428 12.682H29.6338C29.7245 10.4833 29.7698 8.42633 29.7698 6.511C29.7698 4.59567 29.7245 2.53867 29.6338 0.340001H42.8428V3.417H33.6458V5.049C34.1898 5.06033 34.9945 5.066 36.0598 5.066C37.8618 5.066 39.7261 5.032 41.6528 4.964V7.888C39.7261 7.82 37.8618 7.786 36.0598 7.786C34.9945 7.786 34.1898 7.79167 33.6458 7.803V9.571Z" fill="white"/>
<path d="M54.0903 12.682C53.8749 12.036 53.5859 11.2257 53.2233 10.251H47.8003L46.9503 12.682H42.6833L47.4433 0.340001H53.6993L58.4933 12.682H54.0903ZM52.2543 7.599C51.8236 6.409 51.3816 5.219 50.9283 4.029L50.5203 2.924C50.1236 3.95533 49.5399 5.51367 48.7693 7.599H52.2543Z" fill="white"/>
<path d="M67.9424 12.682C67.4097 11.7187 66.5257 10.2453 65.2904 8.262L63.3014 10.234V12.682H59.0684C59.159 10.4833 59.2044 8.42633 59.2044 6.511C59.2044 4.59567 59.159 2.53867 59.0684 0.340001H63.3014V5.321C65.3867 3.25833 66.8714 1.598 67.7554 0.340001H73.2634L67.9084 5.644C68.7017 6.75467 69.5914 7.96167 70.5774 9.265C71.5747 10.5683 72.4757 11.7073 73.2804 12.682H67.9424Z" fill="white"/>
<path d="M80.2846 9.333C80.9306 9.32167 82.5966 9.27633 85.2826 9.197C85.6226 9.18567 86.0193 9.16867 86.4726 9.146C86.926 9.12334 87.4303 9.10633 87.9856 9.095C87.9063 9.62767 87.8553 10.1603 87.8326 10.693C87.8213 11.2257 87.8156 11.8887 87.8156 12.682H74.7766V8.891C75.4 8.53967 76.08 8.109 76.8166 7.599C77.5533 7.07767 78.5053 6.39767 79.6726 5.559C80.7606 4.76567 81.5483 4.199 82.0356 3.859C81.1403 3.87033 79.344 3.93267 76.6466 4.046C75.7173 4.09133 75.094 4.11967 74.7766 4.131C74.7766 3.29233 74.7653 2.58967 74.7426 2.023C74.7313 1.45633 74.6973 0.895334 74.6406 0.340001H87.8156V4.148C87.215 4.54467 86.1043 5.31533 84.4836 6.46C82.6703 7.752 81.2706 8.70967 80.2846 9.333Z" fill="white"/>
<path d="M93.3616 9.571C97.6683 9.54833 100.791 9.486 102.729 9.384C102.649 9.84867 102.598 10.3303 102.576 10.829C102.564 11.3163 102.559 11.934 102.559 12.682H89.3496C89.4403 10.4833 89.4856 8.42633 89.4856 6.511C89.4856 4.59567 89.4403 2.53867 89.3496 0.340001H102.559V3.417H93.3616V5.049C93.9056 5.06033 94.7103 5.066 95.7756 5.066C97.5776 5.066 99.4419 5.032 101.369 4.964V7.888C99.4419 7.82 97.5776 7.786 95.7756 7.786C94.7103 7.786 93.9056 7.79167 93.3616 7.803V9.571Z" fill="white"/>
<path d="M117.743 4.454C117.743 5.44 117.499 6.273 117.012 6.953C116.536 7.633 115.714 8.126 114.547 8.432C114.683 8.61333 114.779 8.755 114.836 8.857L117.59 12.682H112.966C112.467 11.7527 111.679 10.438 110.603 8.738H108.104V12.682H104.092C104.182 10.4833 104.228 8.42633 104.228 6.511C104.228 4.59567 104.182 2.53867 104.092 0.340001H108.104V0.357H111.589C113.878 0.357 115.476 0.725334 116.383 1.462C117.289 2.19867 117.743 3.196 117.743 4.454ZM108.104 3.621V5.559H110.399C111.362 5.559 112.087 5.53067 112.575 5.474C113.073 5.406 113.419 5.304 113.612 5.168C113.804 5.032 113.901 4.83367 113.901 4.573C113.901 4.32367 113.81 4.131 113.629 3.995C113.447 3.859 113.107 3.76267 112.609 3.706C112.11 3.64933 111.373 3.621 110.399 3.621H108.104Z" fill="white"/>
<path d="M119.1 11.22C119.485 10.642 119.802 10.1037 120.052 9.605C120.312 9.10633 120.562 8.52833 120.8 7.871C121.604 8.33567 122.539 8.69833 123.605 8.959C124.67 9.21967 125.662 9.35 126.58 9.35C127.52 9.35 128.183 9.27067 128.569 9.112C128.954 8.942 129.147 8.76067 129.147 8.568C129.147 7.87667 128.093 7.531 125.985 7.531C123.673 7.531 121.995 7.293 120.953 6.817C119.91 6.32967 119.389 5.54767 119.389 4.471C119.389 2.941 120.023 1.81333 121.293 1.088C122.562 0.362667 124.211 0 126.24 0C127.418 0 128.625 0.153 129.861 0.459001C131.107 0.753668 132.229 1.16167 133.227 1.683C132.898 2.431 132.552 3.34333 132.19 4.42C132.122 4.64667 132.065 4.81667 132.02 4.93C131.442 4.46533 130.569 4.08 129.402 3.774C128.234 3.45667 127.203 3.298 126.308 3.298C125.231 3.298 124.506 3.37167 124.132 3.519C123.758 3.655 123.571 3.859 123.571 4.131C123.571 4.403 123.826 4.624 124.336 4.794C124.857 4.95267 125.605 5.032 126.58 5.032C128.982 5.032 130.728 5.30967 131.816 5.865C132.904 6.409 133.448 7.24767 133.448 8.381C133.448 9.96767 132.87 11.1123 131.714 11.815C130.558 12.5063 128.807 12.852 126.461 12.852C125.203 12.852 123.922 12.716 122.619 12.444C121.315 12.1607 120.142 11.7527 119.1 11.22Z" fill="white"/>
</svg>
