<svg width="117" height="101" viewBox="0 0 117 101" fill="none" xmlns="http://www.w3.org/2000/svg">
<path opacity="0.2" d="M0 66.2385C0 50.5456 2.63636 36.7687 7.90909 24.9079C13.3636 13.047 21.6364 4.74435 32.7273 0C36.9091 4.19693 40.5455 7.66396 43.6364 10.4011C46.9091 12.9557 50.4545 15.2367 54.2727 17.2439C45 20.7109 38.1818 24.8166 33.8182 29.561C29.6364 34.3053 26.9091 39.8708 25.6364 46.2574H53.1818V101H0.272727L0 66.2385ZM62.7273 66.2385C62.7273 50.5456 65.3636 36.7687 70.6364 24.9079C76.0909 13.047 84.3636 4.74435 95.4546 0C99.6364 4.19693 103.273 7.66396 106.364 10.4011C109.636 12.9557 113.182 15.2367 117 17.2439C107.727 20.7109 100.909 24.8166 96.5455 29.561C92.3636 34.3053 89.6364 39.8708 88.3636 46.2574H113.182V101H63L62.7273 66.2385Z" fill="url(#paint0_linear_1615_34815)"/>
<defs>
<linearGradient id="paint0_linear_1615_34815" x1="11.5583" y1="47.6538" x2="50.1357" y2="106.485" gradientUnits="userSpaceOnUse">
<stop offset="0.128125" stop-color="#ECF0FA"/>
<stop offset="1" stop-color="white" stop-opacity="0"/>
</linearGradient>
</defs>
</svg>
