<svg width="222" height="222" viewBox="0 0 222 222" fill="none" xmlns="http://www.w3.org/2000/svg">
<mask id="path-1-inside-1_278_3267" fill="white">
<path d="M201.031 110.888C201.031 160.61 160.724 200.918 111.002 200.918C61.2797 200.918 20.972 160.61 20.972 110.888C20.972 61.166 61.2797 20.8584 111.002 20.8584C160.724 20.8584 201.031 61.166 201.031 110.888ZM52.7031 110.888C52.7031 143.085 78.8042 169.186 111.002 169.186C143.199 169.186 169.3 143.085 169.3 110.888C169.3 78.6906 143.199 52.5895 111.002 52.5895C78.8042 52.5895 52.7031 78.6906 52.7031 110.888Z"/>
</mask>
<path d="M201.031 110.888C201.031 160.61 160.724 200.918 111.002 200.918C61.2797 200.918 20.972 160.61 20.972 110.888C20.972 61.166 61.2797 20.8584 111.002 20.8584C160.724 20.8584 201.031 61.166 201.031 110.888ZM52.7031 110.888C52.7031 143.085 78.8042 169.186 111.002 169.186C143.199 169.186 169.3 143.085 169.3 110.888C169.3 78.6906 143.199 52.5895 111.002 52.5895C78.8042 52.5895 52.7031 78.6906 52.7031 110.888Z" fill="#1D51FE" stroke="#CDD5EA" stroke-width="1.66721" mask="url(#path-1-inside-1_278_3267)"/>
<path d="M107.258 102.452C108.639 103.059 109.663 103.499 110.33 103.773L108.323 108.078L96.2749 102.46L98.2821 98.1553C99.8935 98.9807 101.117 99.5881 101.952 99.9775L105.616 92.1202C104.51 93.0648 103.033 93.3187 101.185 92.8821C101.975 91.0692 102.569 89.3592 102.967 87.7519C104.259 88.1513 105.198 88.3392 105.782 88.3158C106.388 88.2842 106.891 88.1768 107.291 87.9935C107.705 87.8173 107.983 87.6973 108.124 87.6335L108.145 87.5879L113.11 89.9031L107.258 102.452ZM125.84 102.078C127.571 102.885 128.908 103.804 129.85 104.835C130.815 105.858 131.395 106.914 131.59 108.003C131.807 109.084 131.681 110.125 131.214 111.127C130.152 113.405 128.583 114.688 126.508 114.977C124.454 115.258 122.099 114.779 119.442 113.54C117.21 112.499 115.417 111.21 114.064 109.673C112.732 108.128 112.101 106.291 112.17 104.16C113.062 104.428 114.065 104.656 115.18 104.842C116.309 105.036 117.343 105.177 118.283 105.264C118.297 106.065 118.522 106.752 118.957 107.325C119.4 107.882 120.107 108.388 121.079 108.841C122.111 109.322 123.039 109.552 123.863 109.529C124.702 109.514 125.259 109.21 125.536 108.618C125.819 108.011 125.76 107.364 125.359 106.678C124.958 105.992 124.15 105.366 122.935 104.799C122.146 104.431 121.358 104.239 120.57 104.223C119.79 104.192 119.135 104.367 118.606 104.749L113.345 102.296C114.439 100.902 115.543 99.365 116.659 97.6857C117.79 96.0134 118.712 94.493 119.424 93.1245L135.412 100.58L133.351 104.998C131.715 104.106 130.15 103.302 128.654 102.586C127.18 101.861 125.099 100.873 122.412 99.6196L121.589 100.789C122.92 100.947 124.337 101.377 125.84 102.078Z" fill="#1D51FE"/>
<path d="M74.1269 116.98L77.8439 109.009L79.1648 109.625L77.6701 112.831L81.462 114.599L82.9568 111.393L84.2777 112.009L80.5607 119.98L79.2398 119.364L80.8832 115.84L77.0913 114.072L75.4478 117.596L74.1269 116.98ZM82.0284 120.665L84.6649 115.011L85.9345 115.603L83.2981 121.257L82.0284 120.665ZM85.1321 114.009L85.7454 112.694L87.0151 113.286L86.4018 114.601L85.1321 114.009ZM85.5721 125.804C85.0483 125.56 84.6172 125.28 84.2788 124.965C83.9442 124.652 83.7225 124.32 83.6136 123.969C83.5029 123.621 83.529 123.273 83.6918 122.924C83.8264 122.635 84.0274 122.417 84.2951 122.269C84.561 122.125 84.8792 122.047 85.2499 122.035C85.133 121.87 85.0571 121.7 85.0224 121.527C84.9933 121.352 85.0167 121.182 85.0929 121.019C85.176 120.841 85.3007 120.707 85.467 120.618C85.637 120.531 85.8382 120.491 86.0707 120.498C85.8685 120.159 85.7648 119.791 85.7596 119.396C85.7544 119.001 85.8421 118.61 86.0226 118.223C86.212 117.816 86.4747 117.486 86.8106 117.231C87.1503 116.979 87.5379 116.831 87.9733 116.789C88.4143 116.745 88.8816 116.839 89.375 117.069C89.6331 117.189 89.8563 117.335 90.0446 117.506C90.2367 117.678 90.3928 117.869 90.5127 118.077C90.6866 118.061 90.8959 118.078 91.1409 118.128C91.3914 118.175 91.6533 118.263 91.9266 118.39C91.9759 118.413 92.0215 118.434 92.0632 118.454C92.105 118.473 92.1486 118.494 92.1942 118.515L91.7063 119.279C91.638 119.247 91.5678 119.214 91.4957 119.18C91.4273 119.149 91.3571 119.116 91.285 119.082C91.2508 119.066 91.1892 119.04 91.1001 119.003C91.0149 118.968 90.9269 118.938 90.8364 118.915C90.8822 119.153 90.8861 119.398 90.848 119.648C90.8136 119.9 90.7425 120.142 90.6345 120.373C90.4398 120.791 90.1736 121.129 89.8359 121.387C89.5 121.642 89.1115 121.791 88.6705 121.835C88.2351 121.877 87.7725 121.784 87.2829 121.555C87.1652 121.5 87.0549 121.44 86.9519 121.373C86.8527 121.308 86.7561 121.238 86.6622 121.162C86.5289 121.151 86.4374 121.198 86.3879 121.304C86.3436 121.399 86.3652 121.502 86.4525 121.612C86.5398 121.722 86.6999 121.854 86.9327 122.009L88.0203 122.724C88.5886 123.091 88.9807 123.484 89.1964 123.903C89.4159 124.324 89.4132 124.776 89.1884 125.258C89.0114 125.638 88.7491 125.913 88.4015 126.083C88.0539 126.254 87.6388 126.317 87.156 126.272C86.6732 126.227 86.1453 126.071 85.5721 125.804ZM86.113 124.822C86.6103 125.054 87.0171 125.168 87.3337 125.163C87.6502 125.158 87.866 125.032 87.981 124.785C88.0801 124.573 88.0681 124.371 87.9448 124.179C87.8235 123.993 87.5968 123.786 87.2645 123.557L85.9906 122.706C85.7598 122.696 85.5442 122.727 85.3439 122.8C85.1435 122.873 84.9955 123.012 84.8999 123.217C84.7637 123.509 84.8079 123.791 85.0327 124.062C85.2556 124.337 85.6158 124.59 86.113 124.822ZM87.7316 120.593C88.1036 120.766 88.4393 120.78 88.7388 120.633C89.0422 120.488 89.2841 120.222 89.4646 119.835C89.6416 119.455 89.6873 119.104 89.6017 118.783C89.5217 118.459 89.2957 118.21 88.9237 118.037C88.5479 117.861 88.2083 117.846 87.905 117.991C87.6072 118.134 87.3699 118.396 87.1929 118.775C87.0123 119.162 86.9621 119.518 87.0421 119.842C87.126 120.167 87.3558 120.418 87.7316 120.593ZM90.3351 124.538L94.3176 115.998L95.593 116.592L93.8354 120.362L93.5765 120.04C93.9294 119.927 94.2864 119.86 94.6474 119.839C95.0103 119.814 95.4023 119.9 95.8237 120.097C96.3171 120.327 96.6719 120.626 96.8881 120.995C97.1043 121.364 97.1971 121.779 97.1667 122.241C97.1362 122.703 97.0006 123.192 96.7599 123.708L95.2943 126.851L94.0246 126.259L95.4397 123.224C95.7017 122.662 95.7978 122.203 95.7282 121.847C95.664 121.489 95.4251 121.214 95.0114 121.021C94.6735 120.863 94.348 120.813 94.0348 120.871C93.7254 120.93 93.4255 121.062 93.1351 121.269L93.6947 120.663L91.6105 125.133L90.3351 124.538ZM99.2536 128.836C98.5779 128.52 98.0761 128.12 97.748 127.634C97.4237 127.15 97.2503 126.631 97.2276 126.075C97.2105 125.517 97.3276 124.968 97.5789 124.429C97.8214 123.909 98.1507 123.481 98.5668 123.143C98.9885 122.804 99.4654 122.599 99.9975 122.528C100.535 122.455 101.098 122.556 101.686 122.83C102.203 123.071 102.594 123.381 102.861 123.759C103.128 124.138 103.271 124.556 103.289 125.013C103.313 125.467 103.215 125.93 102.995 126.401C102.946 126.507 102.886 126.615 102.816 126.726C102.751 126.834 102.679 126.944 102.6 127.055L98.7853 125.276C98.6455 125.715 98.6082 126.097 98.6733 126.423C98.7384 126.749 98.8782 127.029 99.0926 127.263C99.3087 127.493 99.5705 127.68 99.878 127.824C100.182 127.965 100.491 128.065 100.805 128.124C101.125 128.181 101.437 128.202 101.74 128.186L101.346 129.284C101.08 129.29 100.766 129.264 100.405 129.206C100.043 129.148 99.6597 129.025 99.2536 128.836ZM99.2458 124.437L101.779 125.619C101.875 125.414 101.925 125.203 101.928 124.988C101.937 124.77 101.882 124.567 101.762 124.377C101.649 124.185 101.455 124.026 101.182 123.898C100.783 123.712 100.421 123.675 100.097 123.787C99.7755 123.901 99.4919 124.118 99.2458 124.437ZM103.987 131.043C103.569 130.848 103.225 130.634 102.955 130.402C102.686 130.166 102.46 129.933 102.275 129.704L102.929 128.629C103.088 128.884 103.286 129.138 103.523 129.392C103.762 129.642 104.058 129.849 104.411 130.014C104.723 130.159 104.983 130.22 105.192 130.198C105.403 130.171 105.557 130.054 105.655 129.845C105.731 129.682 105.745 129.527 105.698 129.38C105.653 129.229 105.565 129.08 105.436 128.932C105.312 128.782 105.165 128.625 104.996 128.463C104.73 128.21 104.501 127.958 104.309 127.706C104.118 127.451 103.997 127.182 103.944 126.898C103.895 126.617 103.949 126.307 104.107 125.969C104.252 125.658 104.463 125.414 104.739 125.238C105.017 125.058 105.346 124.967 105.726 124.964C106.107 124.961 106.528 125.067 106.991 125.283C107.356 125.453 107.652 125.64 107.881 125.844C108.113 126.049 108.31 126.261 108.472 126.48L107.829 127.531C107.681 127.264 107.51 127.02 107.317 126.801C107.125 126.577 106.876 126.394 106.568 126.25C106.295 126.123 106.054 126.075 105.845 126.107C105.64 126.141 105.488 126.262 105.391 126.471C105.281 126.706 105.299 126.925 105.445 127.127C105.591 127.329 105.838 127.604 106.185 127.95C106.368 128.132 106.532 128.315 106.677 128.499C106.823 128.682 106.938 128.872 107.022 129.068C107.106 129.265 107.146 129.471 107.143 129.686C107.139 129.902 107.08 130.133 106.965 130.38C106.816 130.698 106.607 130.95 106.336 131.133C106.066 131.317 105.735 131.407 105.343 131.405C104.951 131.402 104.499 131.282 103.987 131.043ZM109.048 133.403C108.691 133.236 108.435 133.032 108.281 132.788C108.126 132.545 108.048 132.292 108.046 132.028C108.046 131.76 108.102 131.506 108.214 131.267L109.754 127.965L108.888 127.561L109.483 126.584L110.234 126.934L110.839 125.636L112.17 126.097L111.504 127.526L112.836 128.147L112.356 129.178L111.023 128.557L109.762 131.261C109.615 131.576 109.528 131.813 109.5 131.971C109.475 132.125 109.521 132.253 109.64 132.355C109.761 132.453 109.973 132.573 110.277 132.714L110.618 132.873L110.027 133.859L109.048 133.403ZM115.219 136.28C114.801 136.085 114.457 135.872 114.186 135.639C113.918 135.403 113.691 135.17 113.507 134.941L114.161 133.867C114.319 134.121 114.517 134.375 114.755 134.629C114.994 134.879 115.29 135.087 115.643 135.251C115.954 135.396 116.214 135.458 116.424 135.435C116.635 135.409 116.789 135.291 116.886 135.082C116.962 134.919 116.977 134.764 116.93 134.617C116.884 134.467 116.797 134.317 116.667 134.169C116.543 134.019 116.397 133.863 116.227 133.701C115.962 133.447 115.733 133.195 115.541 132.944C115.35 132.688 115.228 132.419 115.176 132.136C115.127 131.854 115.181 131.544 115.339 131.207C115.484 130.895 115.694 130.652 115.971 130.475C116.249 130.295 116.578 130.204 116.958 130.201C117.338 130.198 117.76 130.305 118.223 130.521C118.587 130.691 118.884 130.877 119.112 131.081C119.345 131.286 119.542 131.498 119.703 131.717L119.06 132.769C118.912 132.501 118.742 132.258 118.548 132.038C118.357 131.815 118.107 131.631 117.8 131.488C117.527 131.36 117.285 131.313 117.076 131.345C116.871 131.378 116.72 131.5 116.623 131.708C116.513 131.944 116.531 132.162 116.677 132.365C116.823 132.567 117.07 132.841 117.416 133.188C117.599 133.37 117.763 133.553 117.909 133.736C118.055 133.92 118.169 134.109 118.253 134.306C118.337 134.502 118.378 134.708 118.374 134.924C118.371 135.139 118.312 135.37 118.197 135.617C118.048 135.936 117.838 136.187 117.568 136.371C117.297 136.554 116.966 136.645 116.575 136.642C116.183 136.64 115.731 136.519 115.219 136.28ZM119.653 138.348C119.334 138.199 119.079 137.997 118.889 137.742C118.698 137.487 118.587 137.199 118.556 136.88C118.529 136.562 118.595 136.232 118.754 135.891C118.903 135.572 119.102 135.332 119.353 135.172C119.609 135.009 119.892 134.908 120.202 134.868C120.515 134.829 120.835 134.832 121.16 134.878C121.491 134.921 121.811 134.989 122.119 135.082C122.43 135.177 122.707 135.278 122.948 135.386C123.124 134.978 123.16 134.657 123.056 134.424C122.958 134.189 122.723 133.985 122.351 133.811C122.112 133.7 121.857 133.622 121.586 133.579C121.315 133.536 120.988 133.529 120.604 133.558L120.956 132.461C121.334 132.434 121.713 132.453 122.094 132.52C122.479 132.584 122.851 132.699 123.208 132.866C123.652 133.073 123.987 133.324 124.215 133.62C124.442 133.915 124.548 134.277 124.534 134.704C124.523 135.134 124.379 135.646 124.101 136.242L123.453 137.631C123.324 137.909 123.239 138.125 123.198 138.282C123.157 138.439 123.163 138.561 123.214 138.65C123.269 138.74 123.376 138.822 123.535 138.897L123.689 138.968L123.069 139.941L122.716 139.776C122.458 139.656 122.258 139.526 122.115 139.385C121.971 139.249 121.869 139.102 121.808 138.944C121.751 138.788 121.72 138.618 121.713 138.435C121.417 138.565 121.085 138.623 120.717 138.608C120.353 138.596 119.998 138.509 119.653 138.348ZM120.556 137.57C120.735 137.653 120.952 137.699 121.207 137.707C121.463 137.711 121.708 137.663 121.939 137.563L122.55 136.254C122.18 136.095 121.83 135.989 121.498 135.937C121.169 135.88 120.882 135.892 120.636 135.971C120.397 136.049 120.22 136.21 120.107 136.452C119.989 136.707 119.967 136.926 120.044 137.109C120.124 137.294 120.295 137.448 120.556 137.57ZM125.44 141.047C125.095 140.886 124.845 140.688 124.69 140.454C124.54 140.222 124.466 139.975 124.468 139.713C124.472 139.447 124.534 139.185 124.654 138.926L128.018 131.713L129.294 132.307L126.201 138.94C126.057 139.248 125.972 139.481 125.944 139.639C125.918 139.793 125.95 139.914 126.038 140.002C126.133 140.087 126.288 140.18 126.504 140.281L125.884 141.254L125.44 141.047ZM129.534 142.956C128.859 142.641 128.357 142.24 128.029 141.755C127.705 141.271 127.531 140.751 127.509 140.195C127.491 139.637 127.609 139.089 127.86 138.55C128.102 138.03 128.432 137.601 128.848 137.263C129.269 136.924 129.746 136.719 130.278 136.648C130.816 136.575 131.379 136.676 131.967 136.951C132.484 137.191 132.875 137.501 133.142 137.88C133.409 138.258 133.552 138.676 133.57 139.133C133.594 139.587 133.496 140.05 133.276 140.521C133.227 140.627 133.167 140.735 133.097 140.846C133.032 140.955 132.96 141.064 132.881 141.175L129.066 139.396C128.926 139.835 128.889 140.217 128.954 140.543C129.019 140.869 129.159 141.149 129.373 141.383C129.59 141.614 129.851 141.8 130.159 141.944C130.463 142.085 130.772 142.186 131.086 142.244C131.406 142.301 131.718 142.322 132.021 142.306L131.627 143.405C131.361 143.41 131.047 143.384 130.686 143.326C130.324 143.269 129.941 143.145 129.534 142.956ZM129.527 138.557L132.06 139.739C132.156 139.534 132.206 139.324 132.209 139.108C132.218 138.891 132.163 138.687 132.043 138.497C131.929 138.305 131.736 138.146 131.463 138.018C131.064 137.832 130.702 137.796 130.377 137.907C130.056 138.021 129.773 138.238 129.527 138.557Z" fill="#1D51FE"/>
<path d="M139.044 177.649L141.823 185.993L140.422 186.46L134.757 182.016L136.655 187.714L135.266 188.177L132.487 179.832L133.638 179.449L139.672 184.147L137.661 178.109L139.044 177.649Z" fill="white"/>
<path d="M126.459 181.212L127.812 189.903L122.48 190.733L122.267 189.367L126.159 188.761L125.832 186.657L122.827 187.125L122.615 185.759L125.619 185.291L125.019 181.437L126.459 181.212Z" fill="white"/>
<path d="M114.205 182.419L114.197 189.832L116.71 189.835L116.708 191.217L110.218 191.21L110.22 189.828L112.739 189.831L112.748 182.418L114.205 182.419Z" fill="white"/>
<path d="M86.1975 177.496L82.6869 185.56L81.3333 184.971L80.0901 177.88L77.6929 183.386L76.3508 182.802L79.8614 174.738L80.9731 175.222L82.321 182.75L84.8612 176.915L86.1975 177.496Z" fill="white"/>
<path d="M74.4558 171.736L69.653 179.104L65.1322 176.157L65.8869 174.999L69.1867 177.15L70.3497 175.366L67.8025 173.705L68.5572 172.548L71.1044 174.208L73.2348 170.94L74.4558 171.736Z" fill="white"/>
<path d="M64.5359 164.442L59.5745 169.95L61.4416 171.632L60.5166 172.659L55.6947 168.315L56.6198 167.288L58.4915 168.974L63.453 163.466L64.5359 164.442Z" fill="white"/>
<path d="M45.9646 139.017L37.7136 142.062L37.2024 140.677L41.4619 134.873L35.8276 136.952L35.3207 135.579L43.5718 132.534L43.9917 133.671L39.4897 139.853L45.46 137.649L45.9646 139.017Z" fill="white"/>
<path d="M41.9996 126.554L33.3569 128.184L32.3563 122.882L33.7144 122.625L34.4448 126.496L36.5375 126.101L35.9738 123.113L37.3319 122.857L37.8957 125.845L41.7293 125.121L41.9996 126.554Z" fill="white"/>
<path d="M40.4019 114.345L32.9924 114.574L33.0701 117.086L31.6887 117.129L31.488 110.642L32.8694 110.599L32.9473 113.117L40.3569 112.888L40.4019 114.345Z" fill="white"/>
<path d="M45.9064 83.3376L37.9985 79.4879L38.6447 78.1605L45.7825 77.2195L40.3825 74.5907L41.0232 73.2746L48.9311 77.1243L48.4004 78.2144L40.8224 79.2416L46.5443 82.0271L45.9064 83.3376Z" fill="white"/>
<path d="M52.1605 71.851L45.003 66.7397L48.1391 62.3481L49.2639 63.1513L46.9748 66.3568L48.7079 67.5945L50.4749 65.12L51.5997 65.9232L49.8327 68.3976L53.0075 70.6648L52.1605 71.851Z" fill="white"/>
<path d="M59.8696 62.2488L54.5772 57.0581L52.8176 58.8522L51.8309 57.8844L56.375 53.2513L57.3617 54.219L55.5977 56.0176L60.8902 61.2083L59.8696 62.2488Z" fill="white"/>
<path d="M86.0659 44.7674L83.3734 36.3945L84.7789 35.9426L90.3972 40.4446L88.5586 34.7271L89.9521 34.279L92.6446 42.6519L91.4903 43.0231L85.5052 38.2628L87.4534 44.3212L86.0659 44.7674Z" fill="white"/>
<path d="M98.687 41.3342L97.4245 32.6301L102.765 31.8555L102.964 33.2233L99.0653 33.7887L99.371 35.8963L102.38 35.4598L102.579 36.8276L99.5694 37.2641L100.129 41.125L98.687 41.3342Z" fill="white"/>
<path d="M110.949 40.253L111.034 32.8404L108.521 32.8115L108.537 31.4295L115.026 31.5042L115.01 32.8862L112.491 32.8572L112.406 40.2698L110.949 40.253Z" fill="white"/>
<path d="M141.698 47.0687L145.88 39.3313L147.179 40.0332L147.816 47.2046L150.672 41.921L151.959 42.617L147.778 50.3544L146.711 49.7779L146.006 42.1631L142.98 47.7616L141.698 47.0687Z" fill="white"/>
<path d="M152.91 53.804L158.321 46.8698L162.575 50.1895L161.725 51.2791L158.619 48.8561L157.309 50.5351L159.707 52.4056L158.856 53.4952L156.459 51.6248L154.059 54.7005L152.91 53.804Z" fill="white"/>
<path d="M162.177 61.9133L167.588 56.846L165.87 55.0118L166.879 54.0671L171.315 58.8037L170.306 59.7485L168.584 57.9097L163.173 62.9771L162.177 61.9133Z" fill="white"/>
<path d="M178.535 88.8261L187.015 86.4914L187.407 87.9148L182.67 93.337L188.461 91.7427L188.849 93.154L180.37 95.4887L180.048 94.3197L185.058 88.542L178.922 90.2313L178.535 88.8261Z" fill="white"/>
<path d="M181.43 101.581L190.18 100.689L190.727 106.058L189.353 106.198L188.953 102.279L186.834 102.495L187.143 105.52L185.768 105.66L185.459 102.635L181.578 103.031L181.43 101.581Z" fill="white"/>
<path d="M181.989 113.881L189.391 114.281L189.526 111.772L190.906 111.846L190.556 118.326L189.176 118.252L189.312 115.736L181.91 115.336L181.989 113.881Z" fill="white"/>
<path d="M173.878 144.312L181.431 148.819L180.675 150.086L173.483 150.419L178.64 153.496L177.89 154.753L170.337 150.247L170.959 149.205L178.597 148.825L173.132 145.564L173.878 144.312Z" fill="white"/>
<path d="M166.673 155.227L173.372 160.927L169.874 165.037L168.822 164.141L171.374 161.142L169.753 159.761L167.782 162.077L166.729 161.181L168.7 158.866L165.729 156.337L166.673 155.227Z" fill="white"/>
<path d="M158.18 164.141L163.013 169.762L164.918 168.124L165.819 169.172L160.899 173.403L159.998 172.355L161.908 170.713L157.075 165.092L158.18 164.141Z" fill="white"/>
</svg>
