<svg width="221" height="222" viewBox="0 0 221 222" fill="none" xmlns="http://www.w3.org/2000/svg">
<circle cx="167.437" cy="168.094" r="53" fill="url(#paint0_linear_663_3832)"/>
<path d="M61.8544 15.4525C66.2605 17.6525 70.1461 20.7679 73.2512 24.5904C76.3564 28.4129 78.6096 32.8543 79.8601 37.6177C81.1106 42.381 81.3296 47.3565 80.5024 52.2113C79.6753 57.0661 77.8211 61.6884 75.0638 65.7689C72.3065 69.8495 68.7097 73.2942 64.5139 75.8728C60.3182 78.4514 55.6202 80.1044 50.7342 80.7212C45.8482 81.338 40.8869 80.9044 36.1819 79.4495C31.477 77.9945 27.1369 75.5518 23.452 72.2845L35.3535 58.8617C37.1274 60.4346 39.2168 61.6106 41.4818 62.311C43.7468 63.0115 46.1352 63.2202 48.4874 62.9232C50.8395 62.6263 53.1012 61.8305 55.1211 60.5892C57.1409 59.3478 58.8725 57.6895 60.1998 55.7251C61.5272 53.7607 62.4199 51.5355 62.8181 49.1983C63.2162 46.8612 63.1108 44.466 62.5088 42.1728C61.9068 39.8797 60.8221 37.7416 59.3272 35.9014C57.8324 34.0612 55.9619 32.5614 53.8407 31.5023L61.8544 15.4525Z" fill="url(#paint1_linear_663_3832)"/>
<defs>
<linearGradient id="paint0_linear_663_3832" x1="137.751" y1="145.771" x2="226.402" y2="254.739" gradientUnits="userSpaceOnUse">
<stop stop-color="#E6EBF8"/>
<stop offset="1" stop-color="white" stop-opacity="0"/>
</linearGradient>
<linearGradient id="paint1_linear_663_3832" x1="24.7113" y1="57.228" x2="140.229" y2="28.021" gradientUnits="userSpaceOnUse">
<stop stop-color="#E6EBF8"/>
<stop offset="1" stop-color="white" stop-opacity="0"/>
</linearGradient>
</defs>
</svg>
