<svg width="1080" height="386" viewBox="0 0 1080 386" fill="none" xmlns="http://www.w3.org/2000/svg">
<g clip-path="url(#clip0_278_5507)">
<path opacity="0.2" d="M286.115 25.479C228.828 50.7232 165.791 73.3871 112.374 105.891C104.88 110.451 93.4633 118.381 98.3341 128.603C100.814 133.808 110.942 133.621 115.445 133.718C131.465 134.066 143.244 128.271 153.615 116.326C179.915 86.0348 186.981 46.8071 183.011 9.11007C182.608 5.27822 183.036 0.9196 177.746 4.0971C163.072 12.9122 149.515 25.1792 136.943 36.3233C112.707 57.8074 101.539 85.0672 84.9525 111.62C63.3553 146.195 39.2249 177.37 30.7681 217.404C27.0168 235.163 23.2613 254.145 21.9933 272.24C21.3286 281.726 21.5545 291.285 21.5545 300.783C21.5545 302.419 18.532 314.979 26.6 308.354C35.0802 301.39 66.1315 265.42 67.9513 263.339C90.7607 237.261 113.866 211.288 131.898 182.006C140.946 167.312 147.474 151.476 156.029 136.583C160.522 128.759 155.214 154.319 154.712 163.182C153.409 186.22 153.21 209.677 160.745 231.932C168.381 254.486 191.089 277.396 214.162 287.483C235.878 296.978 226.594 261.468 225.569 254.234C224.928 249.712 213.456 187.323 212.407 182.211C211.013 175.419 206.787 156.543 204.071 162.978C188.444 199.992 194.328 248.336 165.461 280.424C158.564 288.092 99.71 331.364 109.522 341.808C118.773 351.654 171.136 345.556 179.062 345.286C210.978 344.2 241.65 341.348 272.734 334.442C291.471 330.279 321.56 327.273 333.828 310.911C342.779 298.973 347.081 273.862 349.952 261.396C353.554 245.753 357.084 229.751 359.933 213.926C364.288 189.738 337.723 227.517 334.377 232.443C329.375 239.804 312.451 262.927 329.002 266.613C364.764 274.579 406.584 271.332 442.526 268.148C484.847 264.399 523.839 254.059 564.825 244.72C594.094 238.05 626.042 232.078 656.412 235.205C686.18 238.271 711.014 253.607 733.301 271.217C749.984 284.398 782.731 309.683 775.53 335.056C768.505 359.808 729.618 367.531 707.964 369.328C661.487 373.184 615.46 359.496 570.2 352.447C507.157 342.629 444.075 338.153 380.444 333.521C292.3 327.104 406.029 323.546 411.376 323.188C502.071 317.119 592.964 312.873 683.833 309.888C718.242 308.758 752.31 308.767 786.499 304.773C826.18 300.138 865.402 293.574 905.397 291.473C925.641 290.41 948.194 293.347 966.821 283.903C999.878 267.142 1029.01 236.027 1053.25 210.038C1070.26 191.809 1088.62 171.644 1089.56 146.302C1090.3 126.367 1083.55 104.621 1077.16 85.8392C1070.65 66.6701 1064.94 62.2188 1059.18 86.1461C1050.51 122.123 1047.84 160.217 1046.01 196.943C1044.63 224.774 1044.8 252.423 1050.73 279.811C1052.91 289.883 1070.46 322.31 1060.05 331.577C1039.79 349.616 996.392 355.052 970.989 357.767C936.66 361.436 903.103 358.669 869.53 352.038C851.655 348.508 850.598 347.826 861.523 334.442C893.434 295.348 918.074 255.573 939.948 210.55C963.631 161.803 979.875 111.707 999.507 61.6951C1009.07 37.3421 1014.08 39.8467 1036.36 52.0784C1070.89 71.0311 1105.38 91.3241 1144.29 101.799C1174.6 109.956 1192.02 102.046 1218 89.9315" stroke="white" stroke-linecap="round"/>
<circle opacity="0.2" cx="82.236" cy="281.236" r="65.8723" transform="rotate(-94.8791 82.236 281.236)" fill="url(#paint0_linear_278_5507)"/>
<circle opacity="0.2" cx="1017.79" cy="314.786" r="103.369" transform="rotate(-94.8791 1017.79 314.786)" fill="url(#paint1_linear_278_5507)"/>
<circle opacity="0.2" cx="125.806" cy="234.805" r="31.2604" transform="rotate(-94.8791 125.806 234.805)" fill="url(#paint2_linear_278_5507)"/>
<circle opacity="0.2" cx="861.693" cy="333.693" r="41.328" transform="rotate(-94.8791 861.693 333.693)" fill="url(#paint3_linear_278_5507)"/>
</g>
<defs>
<linearGradient id="paint0_linear_278_5507" x1="29.3786" y1="277.524" x2="82.236" y2="347.109" gradientUnits="userSpaceOnUse">
<stop offset="0.128125" stop-color="#ECF0FA"/>
<stop offset="1" stop-color="white" stop-opacity="0"/>
</linearGradient>
<linearGradient id="paint1_linear_278_5507" x1="934.841" y1="308.96" x2="1017.79" y2="418.155" gradientUnits="userSpaceOnUse">
<stop offset="0.128125" stop-color="#ECF0FA"/>
<stop offset="1" stop-color="white" stop-opacity="0"/>
</linearGradient>
<linearGradient id="paint2_linear_278_5507" x1="100.722" y1="233.044" x2="125.806" y2="266.066" gradientUnits="userSpaceOnUse">
<stop offset="0.128125" stop-color="#ECF0FA"/>
<stop offset="1" stop-color="white" stop-opacity="0"/>
</linearGradient>
<linearGradient id="paint3_linear_278_5507" x1="828.531" y1="331.364" x2="861.693" y2="375.021" gradientUnits="userSpaceOnUse">
<stop offset="0.128125" stop-color="#ECF0FA"/>
<stop offset="1" stop-color="white" stop-opacity="0"/>
</linearGradient>
<clipPath id="clip0_278_5507">
<rect width="1080" height="386" rx="25" fill="white"/>
</clipPath>
</defs>
</svg>
