<svg width="127" height="145" viewBox="0 0 127 145" fill="none" xmlns="http://www.w3.org/2000/svg">
<path d="M84.6162 0.880373C94.2766 5.7038 102.796 12.5343 109.604 20.9152C116.412 29.296 121.352 39.0339 124.094 49.4776C126.835 59.9213 127.316 70.8301 125.502 81.4743C123.689 92.1185 119.623 102.253 113.578 111.199C107.532 120.146 99.6465 127.699 90.4473 133.352C81.2481 139.006 70.9477 142.63 60.2352 143.982C49.5226 145.335 38.6447 144.384 28.3291 141.194C18.0135 138.004 8.49787 132.648 0.418724 125.485L26.5128 96.0554C30.4021 99.5039 34.983 102.082 39.9491 103.618C44.9151 105.154 50.1518 105.611 55.3089 104.96C60.466 104.309 65.4247 102.564 69.8533 99.8428C74.2819 97.1211 78.0783 93.4852 80.9886 89.1782C83.8989 84.8712 85.856 79.9925 86.729 74.8683C87.6021 69.7441 87.3709 64.4925 86.051 59.4648C84.7311 54.4371 82.3529 49.7492 79.0754 45.7146C75.7979 41.68 71.6968 38.3917 67.0462 36.0697L84.6162 0.880373Z" fill="url(#paint0_linear_270_2725)"/>
<defs>
<linearGradient id="paint0_linear_270_2725" x1="3.17977" y1="92.4734" x2="199.36" y2="48.6312" gradientUnits="userSpaceOnUse">
<stop stop-color="#E6EBF8"/>
<stop offset="1" stop-color="white" stop-opacity="0"/>
</linearGradient>
</defs>
</svg>
