<svg width="1280" height="503" viewBox="0 0 1280 503" fill="none" xmlns="http://www.w3.org/2000/svg">
<circle cx="1211.5" cy="306.5" r="103.5" fill="url(#paint0_linear_819_3628)"/>
<path d="M180.978 16.2331C185.607 18.5441 189.688 21.8168 192.95 25.8324C196.212 29.8479 198.579 34.5136 199.893 39.5175C201.207 44.5214 201.437 49.7482 200.568 54.8482C199.699 59.9481 197.751 64.8038 194.854 69.0904C191.958 73.377 188.18 76.9957 183.772 79.7045C179.364 82.4133 174.429 84.1498 169.296 84.7978C164.164 85.4457 158.952 84.9903 154.009 83.4618C149.067 81.9334 144.507 79.3673 140.636 75.935L153.139 61.8344C155.002 63.4867 157.197 64.7221 159.577 65.4579C161.956 66.1937 164.465 66.413 166.936 66.101C169.407 65.7891 171.783 64.9531 173.905 63.6491C176.027 62.345 177.846 60.603 179.24 58.5394C180.634 56.4758 181.572 54.1382 181.99 51.683C182.409 49.2278 182.298 46.7116 181.665 44.3027C181.033 41.8938 179.894 39.6477 178.323 37.7146C176.753 35.7815 174.788 34.2059 172.56 33.0934L180.978 16.2331Z" fill="url(#paint1_linear_819_3628)"/>
<path d="M922.515 334.359C930.601 338.396 937.731 344.114 943.43 351.129C949.129 358.144 953.264 366.294 955.558 375.036C957.853 383.778 958.255 392.909 956.737 401.818C955.219 410.728 951.817 419.21 946.756 426.699C941.696 434.188 935.095 440.509 927.395 445.242C919.695 449.974 911.074 453.007 902.107 454.139C893.14 455.271 884.035 454.476 875.401 451.805C866.766 449.135 858.801 444.652 852.039 438.656L873.88 414.023C877.136 416.91 880.97 419.068 885.127 420.353C889.284 421.639 893.667 422.022 897.984 421.477C902.3 420.932 906.451 419.471 910.158 417.193C913.865 414.915 917.042 411.872 919.478 408.267C921.914 404.662 923.552 400.578 924.283 396.289C925.014 392 924.82 387.604 923.716 383.396C922.611 379.187 920.62 375.263 917.877 371.886C915.133 368.509 911.701 365.757 907.808 363.813L922.515 334.359Z" fill="url(#paint2_linear_819_3628)"/>
<circle cx="381.683" cy="164.682" r="48.7155" transform="rotate(-94.8791 381.683 164.682)" fill="url(#paint3_linear_819_3628)"/>
<circle cx="945.723" cy="132.864" r="36.4892" transform="rotate(-94.8791 945.723 132.864)" fill="url(#paint4_linear_819_3628)"/>
<path d="M-23.7824 229.357C-35.3451 245.068 -43.4198 263.067 -47.4665 282.15C-51.5132 301.233 -51.4386 320.96 -47.2477 340.012C-43.0568 359.064 -34.8463 377.001 -23.1651 392.624C-11.484 408.247 3.39843 421.196 20.4868 430.605C37.5751 440.014 56.4755 445.665 75.9238 447.182C95.3721 448.698 114.92 446.044 133.26 439.398C151.6 432.751 168.31 422.265 182.271 408.641C196.233 395.017 207.124 378.569 214.217 360.397L148.023 334.559C144.608 343.308 139.365 351.226 132.644 357.785C125.923 364.343 117.878 369.391 109.049 372.591C100.22 375.791 90.8097 377.068 81.4471 376.338C72.0846 375.608 62.9858 372.888 54.7593 368.358C46.5328 363.829 39.3683 357.595 33.7449 350.074C28.1215 342.553 24.1688 333.917 22.1513 324.746C20.1338 315.574 20.0979 306.077 22.046 296.891C23.9941 287.704 27.8814 279.039 33.4477 271.476L-23.7824 229.357Z" fill="url(#paint5_linear_819_3628)"/>
<defs>
<linearGradient id="paint0_linear_819_3628" x1="1153.53" y1="262.908" x2="1326.65" y2="475.703" gradientUnits="userSpaceOnUse">
<stop stop-color="#E6EBF8"/>
<stop offset="1" stop-color="white" stop-opacity="0"/>
</linearGradient>
<linearGradient id="paint1_linear_819_3628" x1="141.959" y1="60.1182" x2="235.956" y2="39.112" gradientUnits="userSpaceOnUse">
<stop stop-color="#E6EBF8"/>
<stop offset="1" stop-color="white" stop-opacity="0"/>
</linearGradient>
<linearGradient id="paint2_linear_819_3628" x1="854.35" y1="411.025" x2="1018.56" y2="374.328" gradientUnits="userSpaceOnUse">
<stop stop-color="#E6EBF8"/>
<stop offset="1" stop-color="white" stop-opacity="0"/>
</linearGradient>
<linearGradient id="paint3_linear_819_3628" x1="354.396" y1="144.165" x2="435.881" y2="244.323" gradientUnits="userSpaceOnUse">
<stop stop-color="#E6EBF8"/>
<stop offset="1" stop-color="white" stop-opacity="0"/>
</linearGradient>
<linearGradient id="paint4_linear_819_3628" x1="925.284" y1="117.496" x2="986.319" y2="192.517" gradientUnits="userSpaceOnUse">
<stop stop-color="#E6EBF8"/>
<stop offset="1" stop-color="white" stop-opacity="0"/>
</linearGradient>
<linearGradient id="paint5_linear_819_3628" x1="182.594" y1="309.586" x2="-168.978" y2="400.628" gradientUnits="userSpaceOnUse">
<stop stop-color="#E6EBF8"/>
<stop offset="1" stop-color="white" stop-opacity="0"/>
</linearGradient>
</defs>
</svg>
