<svg width="644" height="489" viewBox="0 0 644 489" fill="none" xmlns="http://www.w3.org/2000/svg">
<path d="M13.712 488C93.0304 479.675 247.663 452.85 313.311 397.489C394.399 329.107 431.705 215.923 445.536 115.122C447.961 97.4475 446.656 79.4551 447.769 61.6504C448.263 53.7622 446.552 45.0137 450.355 38.0807C467.744 6.38104 537.895 41.0792 552.609 50.3932C619.296 92.6054 684.968 178.703 667.439 261.582C660.964 292.201 640.636 319.339 648.517 351.757C651.432 363.749 668.349 412.607 688.361 403.235C703.587 396.104 717.535 378.114 726.324 366.298C765.674 313.39 791.835 253.713 821.056 195.095C829.03 179.099 850.951 132.402 867.364 116.998C893.883 92.1098 924.346 114.549 942.115 136.464C951.482 148.015 960.077 160.529 965.857 174.222C972.01 188.799 985.478 239.616 969.383 256.306C958.756 267.325 940.82 271.386 925.543 270.143C857.821 264.632 762.887 210.567 710.339 183.369C656.075 155.282 558.123 95.7257 494.548 73.9629C431.161 52.2645 358.417 62.8218 295.211 79.7087C254.891 90.481 222.453 104.662 190.841 132.008C159.582 159.048 140.139 195.625 119.263 230.273C97.8739 265.773 61.9406 278.857 26.7641 297.582C17.9419 302.278 11.8002 305.599 4.66777 311.888C3.22658 313.159 -0.29138 315.983 1.49437 316.696C2.77219 317.206 4.2513 316.574 5.60804 316.344C37.4574 310.935 69.3732 306.489 101.28 301.334C213.649 283.182 331.801 267.696 433.548 213.739C444.578 207.89 441.376 208.579 443.303 223.824C450.482 280.608 451.686 340.38 465.164 396.082C469.131 412.474 473.116 429.854 483.264 443.339C503.647 470.421 534.467 464.156 562.6 461.397C667.439 461.397 707.485 389.361 743.946 380.178" stroke="#444444" stroke-width="2" stroke-linecap="round"/>
<circle cx="292" cy="342" r="113" fill="url(#paint0_linear_1615_34438)"/>
<path d="M421.146 21.5216C427.283 24.5855 432.694 28.9244 437.019 34.2481C441.343 39.5717 444.481 45.7574 446.223 52.3915C447.965 59.0256 448.27 65.955 447.118 72.7164C445.966 79.4779 443.383 85.9154 439.543 91.5984C435.703 97.2815 430.694 102.079 424.85 105.67C419.007 109.262 412.464 111.564 405.659 112.423C398.854 113.282 391.944 112.678 385.391 110.652C378.839 108.625 372.794 105.223 367.662 100.673L384.238 81.9786C386.708 84.1692 389.618 85.807 392.773 86.7825C395.927 87.758 399.254 88.0487 402.53 87.6352C405.805 87.2216 408.955 86.1133 411.768 84.3845C414.582 82.6556 416.993 80.346 418.842 77.6101C420.69 74.8743 421.934 71.7752 422.488 68.5202C423.043 65.2652 422.896 61.9293 422.058 58.7356C421.219 55.5419 419.708 52.564 417.627 50.0012C415.545 47.4383 412.939 45.3495 409.985 43.8745L421.146 21.5216Z" fill="url(#paint1_linear_1615_34438)"/>
<circle cx="502.685" cy="194.443" r="40.704" transform="rotate(-90 502.685 194.443)" fill="url(#paint2_linear_1615_34438)"/>
<defs>
<linearGradient id="paint0_linear_1615_34438" x1="228.707" y1="294.407" x2="417.718" y2="526.734" gradientUnits="userSpaceOnUse">
<stop stop-color="#333333"/>
<stop offset="1" stop-color="#333333" stop-opacity="0"/>
</linearGradient>
<linearGradient id="paint1_linear_1615_34438" x1="369.416" y1="79.7033" x2="494.034" y2="51.8538" gradientUnits="userSpaceOnUse">
<stop stop-color="#333333"/>
<stop offset="1" stop-color="#333333" stop-opacity="0"/>
</linearGradient>
<linearGradient id="paint2_linear_1615_34438" x1="479.886" y1="177.3" x2="547.97" y2="260.987" gradientUnits="userSpaceOnUse">
<stop stop-color="#333333"/>
<stop offset="1" stop-color="#333333" stop-opacity="0"/>
</linearGradient>
</defs>
</svg>
