<svg width="134" height="14" viewBox="0 0 134 14" fill="none" xmlns="http://www.w3.org/2000/svg">
<path d="M13.26 3.83687H4.012V5.62187C4.59 5.6332 5.457 5.63887 6.613 5.63887C8.60767 5.63887 10.6363 5.60487 12.699 5.53687V8.86887C10.6363 8.78954 8.46033 8.74987 6.171 8.74987C5.219 8.74987 4.49933 8.75554 4.012 8.76687V12.9999H0C0.0906666 10.8012 0.136 8.74421 0.136 6.82887C0.136 4.91354 0.0906666 2.85654 0 0.657872H13.26V3.83687Z" fill="#222222"/>
<path d="M28.277 4.77187C28.277 5.75787 28.0333 6.59087 27.546 7.27087C27.07 7.95087 26.2483 8.44387 25.081 8.74987C25.217 8.93121 25.3133 9.07287 25.37 9.17487L28.124 12.9999H23.5C23.0013 12.0705 22.2136 10.7559 21.137 9.05587H18.638V12.9999H14.626C14.7166 10.8012 14.762 8.74421 14.762 6.82887C14.762 4.91354 14.7166 2.85654 14.626 0.657872H18.638V0.674871H22.123C24.4123 0.674871 26.0103 1.04321 26.917 1.77987C27.8236 2.51654 28.277 3.51387 28.277 4.77187ZM18.638 3.93887V5.87687H20.933C21.8963 5.87687 22.6216 5.84854 23.109 5.79187C23.6076 5.72387 23.9533 5.62187 24.146 5.48587C24.3386 5.34987 24.435 5.15154 24.435 4.89087C24.435 4.64154 24.3443 4.44887 24.163 4.31287C23.9816 4.17687 23.6416 4.08054 23.143 4.02387C22.6443 3.96721 21.9076 3.93887 20.933 3.93887H18.638Z" fill="#222222"/>
<path d="M33.6458 9.88887C37.9525 9.86621 41.0748 9.80387 43.0128 9.70187C42.9335 10.1665 42.8825 10.6482 42.8598 11.1469C42.8485 11.6342 42.8428 12.2519 42.8428 12.9999H29.6338C29.7245 10.8012 29.7698 8.74421 29.7698 6.82887C29.7698 4.91354 29.7245 2.85654 29.6338 0.657872H42.8428V3.73487H33.6458V5.36687C34.1898 5.37821 34.9945 5.38387 36.0598 5.38387C37.8618 5.38387 39.7261 5.34987 41.6528 5.28187V8.20587C39.7261 8.13787 37.8618 8.10387 36.0598 8.10387C34.9945 8.10387 34.1898 8.10954 33.6458 8.12087V9.88887Z" fill="#222222"/>
<path d="M54.0903 12.9999C53.875 12.3539 53.5859 11.5435 53.2233 10.5689H47.8003L46.9503 12.9999H42.6833L47.4433 0.657872H53.6993L58.4933 12.9999H54.0903ZM52.2543 7.91687C51.8236 6.72687 51.3816 5.53687 50.9283 4.34687L50.5203 3.24187C50.1236 4.27321 49.5399 5.83154 48.7693 7.91687H52.2543Z" fill="#222222"/>
<path d="M67.9424 12.9999C67.4097 12.0365 66.5257 10.5632 65.2904 8.57987L63.3014 10.5519V12.9999H59.0684C59.159 10.8012 59.2044 8.74421 59.2044 6.82887C59.2044 4.91354 59.159 2.85654 59.0684 0.657872H63.3014V5.63887C65.3867 3.57621 66.8714 1.91587 67.7554 0.657872H73.2634L67.9084 5.96187C68.7017 7.07254 69.5914 8.27954 70.5774 9.58287C71.5747 10.8862 72.4757 12.0252 73.2804 12.9999H67.9424Z" fill="#222222"/>
<path d="M80.2846 9.65087C80.9306 9.63954 82.5966 9.5942 85.2826 9.51487C85.6226 9.50354 86.0193 9.48654 86.4726 9.46387C86.926 9.44121 87.4303 9.42421 87.9856 9.41287C87.9063 9.94554 87.8553 10.4782 87.8326 11.0109C87.8213 11.5435 87.8156 12.2065 87.8156 12.9999H74.7766V9.20887C75.4 8.85754 76.08 8.42687 76.8166 7.91687C77.5533 7.39554 78.5053 6.71554 79.6726 5.87687C80.7606 5.08354 81.5483 4.51687 82.0356 4.17687C81.1403 4.18821 79.344 4.25054 76.6466 4.36387C75.7173 4.4092 75.094 4.43754 74.7766 4.44887C74.7766 3.6102 74.7653 2.90754 74.7426 2.34087C74.7313 1.7742 74.6973 1.21321 74.6406 0.657872H87.8156V4.46587C87.215 4.86254 86.1043 5.63321 84.4836 6.77787C82.6703 8.06987 81.2706 9.02754 80.2846 9.65087Z" fill="#222222"/>
<path d="M93.3616 9.88887C97.6683 9.86621 100.791 9.80387 102.729 9.70187C102.649 10.1665 102.598 10.6482 102.576 11.1469C102.564 11.6342 102.559 12.2519 102.559 12.9999H89.3496C89.4403 10.8012 89.4856 8.74421 89.4856 6.82887C89.4856 4.91354 89.4403 2.85654 89.3496 0.657872H102.559V3.73487H93.3616V5.36687C93.9056 5.37821 94.7103 5.38387 95.7756 5.38387C97.5776 5.38387 99.4419 5.34987 101.369 5.28187V8.20587C99.4419 8.13787 97.5776 8.10387 95.7756 8.10387C94.7103 8.10387 93.9056 8.10954 93.3616 8.12087V9.88887Z" fill="#222222"/>
<path d="M117.743 4.77187C117.743 5.75787 117.499 6.59087 117.012 7.27087C116.536 7.95087 115.714 8.44387 114.547 8.74987C114.683 8.93121 114.779 9.07287 114.836 9.17487L117.59 12.9999H112.966C112.467 12.0705 111.679 10.7559 110.603 9.05587H108.104V12.9999H104.092C104.182 10.8012 104.228 8.74421 104.228 6.82887C104.228 4.91354 104.182 2.85654 104.092 0.657872H108.104V0.674871H111.589C113.878 0.674871 115.476 1.04321 116.383 1.77987C117.289 2.51654 117.743 3.51387 117.743 4.77187ZM108.104 3.93887V5.87687H110.399C111.362 5.87687 112.087 5.84854 112.575 5.79187C113.073 5.72387 113.419 5.62187 113.612 5.48587C113.804 5.34987 113.901 5.15154 113.901 4.89087C113.901 4.64154 113.81 4.44887 113.629 4.31287C113.447 4.17687 113.107 4.08054 112.609 4.02387C112.11 3.96721 111.373 3.93887 110.399 3.93887H108.104Z" fill="#222222"/>
<path d="M119.1 11.5379C119.485 10.9599 119.802 10.4215 120.052 9.92287C120.312 9.42421 120.562 8.8462 120.8 8.18887C121.604 8.65354 122.539 9.01621 123.605 9.27687C124.67 9.53754 125.662 9.66787 126.58 9.66787C127.52 9.66787 128.183 9.58854 128.569 9.42987C128.954 9.25987 129.147 9.07854 129.147 8.88587C129.147 8.19454 128.093 7.84887 125.985 7.84887C123.673 7.84887 121.995 7.61087 120.953 7.13487C119.91 6.64754 119.389 5.86554 119.389 4.78887C119.389 3.25887 120.023 2.1312 121.293 1.40587C122.562 0.680538 124.211 0.317871 126.24 0.317871C127.418 0.317871 128.625 0.470872 129.861 0.776872C131.107 1.07154 132.229 1.47954 133.227 2.00087C132.898 2.74887 132.552 3.66121 132.19 4.73787C132.122 4.96454 132.065 5.13454 132.02 5.24787C131.442 4.78321 130.569 4.39787 129.402 4.09187C128.234 3.77454 127.203 3.61587 126.308 3.61587C125.231 3.61587 124.506 3.68954 124.132 3.83687C123.758 3.97287 123.571 4.17687 123.571 4.44887C123.571 4.72087 123.826 4.94187 124.336 5.11187C124.857 5.27054 125.605 5.34987 126.58 5.34987C128.982 5.34987 130.728 5.62754 131.816 6.18287C132.904 6.72687 133.448 7.56554 133.448 8.69887C133.448 10.2855 132.87 11.4302 131.714 12.1329C130.558 12.8242 128.807 13.1699 126.461 13.1699C125.203 13.1699 123.922 13.0339 122.619 12.7619C121.315 12.4785 120.142 12.0705 119.1 11.5379Z" fill="#222222"/>
</svg>
