<svg width="117" height="101" viewBox="0 0 117 101" fill="none" xmlns="http://www.w3.org/2000/svg">
<path d="M0 66.2384C0 50.5456 2.63636 36.7687 7.90909 24.9078C13.3636 13.0469 21.6364 4.74429 32.7273 -6.10352e-05C36.9091 4.19687 40.5455 7.6639 43.6364 10.401C46.9091 12.9557 50.4545 15.2366 54.2727 17.2438C45 20.7109 38.1818 24.8166 33.8182 29.5609C29.6364 34.3053 26.9091 39.8708 25.6364 46.2574H53.1818V101H0.272727L0 66.2384ZM62.7273 66.2384C62.7273 50.5456 65.3636 36.7687 70.6364 24.9078C76.0909 13.0469 84.3636 4.74429 95.4546 -6.10352e-05C99.6364 4.19687 103.273 7.6639 106.364 10.401C109.636 12.9557 113.182 15.2366 117 17.2438C107.727 20.7109 100.909 24.8166 96.5455 29.5609C92.3636 34.3053 89.6364 39.8708 88.3636 46.2574H113.182V101H63L62.7273 66.2384Z" fill="url(#paint0_linear_1603_3823)"/>
<defs>
<linearGradient id="paint0_linear_1603_3823" x1="11.5583" y1="47.6538" x2="96.3484" y2="119.055" gradientUnits="userSpaceOnUse">
<stop stop-color="white"/>
<stop offset="1" stop-color="white" stop-opacity="0.71"/>
</linearGradient>
</defs>
</svg>
