<svg width="110" height="29" viewBox="0 0 110 29" fill="none" xmlns="http://www.w3.org/2000/svg">
<path d="M3.42041 26.016H26.9538V2.45215H3.42041V26.016ZM22.4242 11.9668H17.4515V6.98761H22.4242V11.9668ZM7.9491 6.98761H12.9246V16.5013H22.4242V21.4805H7.9491V6.98761ZM42.2785 2.45215C39.9512 2.45215 37.6762 3.14315 35.7413 4.43777C33.8062 5.73238 32.298 7.57247 31.4074 9.72534C30.5168 11.8782 30.2839 14.2471 30.7379 16.5326C31.1919 18.818 32.3125 20.9174 33.9581 22.5651C35.6037 24.2129 37.7004 25.335 39.9829 25.7896C42.2655 26.2442 44.6313 26.0109 46.7814 25.1192C48.9315 24.2274 50.7691 22.7173 52.0621 20.7798C53.3551 18.8422 54.0452 16.5643 54.0452 14.2341C54.0415 11.1104 52.8006 8.11578 50.5947 5.90703C48.3888 3.69828 45.3981 2.4558 42.2785 2.45215ZM42.2785 21.4805C40.8471 21.4805 39.4479 21.0556 38.2577 20.2592C37.0677 19.463 36.14 18.3313 35.5923 17.0072C35.0445 15.6831 34.9012 14.2261 35.1804 12.8203C35.4597 11.4147 36.149 10.1235 37.1611 9.11005C38.1732 8.09662 39.4627 7.40646 40.8666 7.12686C42.2704 6.84725 43.7255 6.99076 45.048 7.53922C46.3704 8.08768 47.5007 9.01648 48.2959 10.2082C49.0912 11.3998 49.5156 12.8009 49.5156 14.2341C49.5126 16.1551 48.7492 17.9966 47.3926 19.3549C46.036 20.7133 44.1969 21.4776 42.2785 21.4805ZM96.152 2.45215C93.8244 2.45197 91.5497 3.14281 89.6145 4.43732C87.6794 5.73182 86.1711 7.57184 85.2804 9.7247C84.3897 11.8775 84.1564 14.2466 84.6104 16.532C85.0643 18.8176 86.1849 20.917 87.8305 22.5648C89.476 24.2126 91.5726 25.3349 93.8556 25.7895C96.1374 26.2442 98.5035 26.0109 100.654 25.1193C102.804 24.2275 104.641 22.7174 105.934 20.7799C107.228 18.8423 107.918 16.5644 107.918 14.2341C107.914 11.1106 106.674 8.11607 104.468 5.90735C102.262 3.69863 99.2715 2.45604 96.152 2.45215ZM96.152 21.4805C94.7208 21.4807 93.3216 21.0558 92.1311 20.2597C90.9408 19.4636 90.0131 18.3319 89.4652 17.0078C88.9173 15.6837 88.7738 14.2266 89.0529 12.8209C89.3321 11.4152 90.0213 10.1239 91.0334 9.11038C92.0455 8.09685 93.3354 7.4066 94.7391 7.12692C96.1429 6.84724 97.598 6.99069 98.9201 7.53914C100.243 8.08757 101.373 9.01637 102.169 10.2081C102.963 11.3998 103.388 12.8009 103.388 14.2341C103.385 16.1549 102.622 17.9962 101.265 19.3545C99.9091 20.7129 98.0705 21.4774 96.152 21.4805ZM69.2148 2.45215C66.8875 2.45215 64.6125 3.14315 62.6776 4.43777C60.7425 5.73238 59.2344 7.57247 58.3438 9.72534C57.4532 11.8782 57.2202 14.2471 57.6742 16.5326C58.1283 18.818 59.2489 20.9174 60.8945 22.5651C62.54 24.2129 64.6367 25.335 66.9192 25.7896C69.2017 26.2442 71.5676 26.0109 73.7177 25.1192C75.8678 24.2274 77.7055 22.7173 78.9985 20.7798C80.2914 18.8422 80.9815 16.5643 80.9815 14.2341C80.9778 11.1104 79.7369 8.11578 77.531 5.90703C75.3251 3.69828 72.3344 2.4558 69.2148 2.45215ZM69.2148 21.4805C67.8812 21.4812 66.5734 21.1129 65.4356 20.4163C64.2979 19.7196 63.3745 18.7219 62.7674 17.5329C62.1604 16.344 61.8931 15.0102 61.9953 13.6788C62.0975 12.3474 62.5651 11.0702 63.3465 9.98808C64.1279 8.90603 65.1928 8.06118 66.4234 7.54682C67.6541 7.03245 69.0028 6.86857 70.3206 7.07327C71.6384 7.27798 72.8741 7.84329 73.8913 8.70683C74.9085 9.57036 75.6676 10.6986 76.0849 11.9668H69.2148V16.5013H76.0849C75.607 17.9485 74.6862 19.2084 73.453 20.1021C72.2199 20.9958 70.7371 21.478 69.2148 21.4805Z" fill="#1D51FE"/>
</svg>
