<svg width="127" height="54" viewBox="0 0 127 54" fill="none" xmlns="http://www.w3.org/2000/svg">
<path d="M64.0858 17.607C64.6032 17.5998 65.0433 17.503 65.0361 16.9711V16.8913C65.0433 16.3617 64.6032 16.265 64.0858 16.2578C63.566 16.265 63.1259 16.3617 63.1331 16.8913V16.9711C63.1259 17.503 63.566 17.5998 64.0858 17.607Z" fill="#1D51FE"/>
<path d="M45.1676 16.5388C45.1676 16.384 45.0443 16.2607 44.8896 16.2607H43.3445V16.8144H44.8896C44.967 16.8144 45.0322 16.7878 45.0854 16.7347C45.141 16.679 45.1676 16.6138 45.1676 16.5388Z" fill="#1D51FE"/>
<path d="M53.865 16.2539L54.31 17.2139H53.4178L53.865 16.2539Z" fill="#1D51FE"/>
<path d="M73.7164 16.2539L74.1615 17.2139H73.2691L73.7164 16.2539Z" fill="#1D51FE"/>
<path d="M42.1082 36.4678L41.4506 35.0488L40.7893 36.4678H42.1082Z" fill="#1D51FE"/>
<path d="M57.6281 36.0599C57.6281 36.5425 57.3529 36.9393 56.8668 36.9393H54.8151V35.1807H56.8668C57.3529 35.1807 57.6281 35.5738 57.6281 36.0599Z" fill="#1D51FE"/>
<path d="M62.8251 35.0488L63.4828 36.4678H62.1638L62.8251 35.0488Z" fill="#1D51FE"/>
<path d="M70.8177 35.0596C71.0465 35.0596 71.2287 35.2419 71.2287 35.4706C71.2287 35.5814 71.1894 35.678 71.1072 35.7602C71.0286 35.8388 70.9321 35.8781 70.8177 35.8781H68.5337V35.0596H70.8177Z" fill="#1D51FE"/>
<path d="M78.374 36.0599C78.374 36.5425 78.0983 36.9393 77.6121 36.9393H75.5601V35.1807H77.6121C78.0983 35.1807 78.374 35.5738 78.374 36.0599Z" fill="#1D51FE"/>
<path d="M33.424 27.1033L31.0402 21.5996H26.9504V30.7724H29.9301V25.818L32.0801 30.7724H34.7444L36.9179 25.818V30.7724H39.8859V21.5996H35.9246L33.424 27.1033Z" fill="#1D51FE"/>
<path d="M52.0467 30.7724V28.4938H45.4679V27.3019H51.7779V25.0701H45.4679V23.8899H51.9649V21.5996H42.3831V30.7724H52.0467Z" fill="#1D51FE"/>
<path d="M54.5605 29.1487C55.4719 30.3289 57.0961 30.9132 59.0476 30.9132C60.513 30.9132 61.5872 30.6155 62.3356 30.1435C62.4643 30.0623 62.5835 29.9758 62.6933 29.8849L62.7751 30.773H65.2874V25.3393H59.1878V27.3142H62.448C62.4336 27.4076 62.3838 27.5544 62.3121 27.6942C62.2674 27.7815 62.2142 27.8661 62.1558 27.9334C61.817 28.3307 60.9172 28.6813 59.7487 28.6813C58.5334 28.6813 57.7505 28.3658 57.3298 27.875C57.0494 27.5128 56.8858 26.9986 56.8858 26.2274C56.8858 25.4212 57.0494 24.8719 57.3649 24.5097C57.8206 23.9956 58.5918 23.7735 59.7253 23.7735C60.7419 23.7735 61.4431 24.0072 61.7702 24.2994C61.9806 24.4746 62.1442 24.7201 62.1792 24.8837H65.2056C65.2014 24.7758 65.1859 24.644 65.1598 24.5037C65.1153 24.2639 65.0401 23.9989 64.9368 23.7853C64.2124 22.3129 62.5297 21.4365 59.6669 21.4365C57.178 21.4365 55.5069 22.196 54.5839 23.3412C53.9762 24.1241 53.6958 25.1056 53.6958 26.204C53.6958 27.4193 54.023 28.4593 54.5605 29.1487Z" fill="#1D51FE"/>
<path d="M57.2659 26.2272C57.2659 25.4647 57.4218 25.0238 57.6505 24.7603C57.9945 24.3732 58.6223 24.1533 59.7254 24.1533C60.7062 24.1533 61.2932 24.3826 61.5172 24.5826L61.5221 24.5869L61.527 24.5911C61.6041 24.6553 61.6745 24.7344 61.7278 24.8115C61.7804 24.8877 61.8015 24.9406 61.8067 24.9591H58.8079V27.6939H61.8605C61.7511 27.8175 61.5165 27.9716 61.1437 28.0955C60.7726 28.2188 60.2964 28.3011 59.7488 28.3011C58.5941 28.3011 57.9447 28.0022 57.6246 27.6346C57.4154 27.3603 57.2659 26.9397 57.2659 26.2272Z" fill="#1D51FE"/>
<path d="M73.2261 24.9795L72.3555 26.6416H74.0486L73.2261 24.9795Z" fill="#1D51FE"/>
<path fill-rule="evenodd" clip-rule="evenodd" d="M75.6535 29.0781L76.4599 30.7724H79.837L75.2092 21.5996H71.4352L66.5391 30.7724H69.846L70.6989 29.0781H75.6535ZM71.7272 27.0215L72.8841 24.813L73.2347 23.9717L73.5618 24.8013L74.6605 27.0215H71.7272Z" fill="#1D51FE"/>
<path fill-rule="evenodd" clip-rule="evenodd" d="M100.037 46.6563H100.031C99.9664 46.6563 99.9013 46.6559 99.8362 46.6552V46.6563H28.3628C22.0558 46.6563 16.4299 43.7398 12.7603 39.182H23.2909V37.8473H11.7736C10.0554 35.3099 8.90411 32.3575 8.50142 29.1717H23.2909V27.837H8.37773C8.35418 27.4396 8.34229 27.039 8.34229 26.6357C8.34229 23.9935 8.85412 21.4709 9.78414 19.1614H23.2909V17.8267H10.3794C11.7943 14.9437 13.882 12.4507 16.4379 10.5526H88.1109C89.0046 9.88901 89.9557 9.29808 90.9547 8.78856C90.6851 8.92587 90.4197 9.069 90.1577 9.21787H18.4844C21.3992 7.56126 24.7705 6.61523 28.3627 6.61523H99.8362V6.61618C99.903 6.61552 99.9698 6.61523 100.037 6.61523C111.093 6.61523 120.057 15.5787 120.057 26.6357C120.057 37.6927 111.093 46.6563 100.037 46.6563ZM107.481 36.0256C108.377 33.3251 108.912 30.1176 108.912 26.6357C108.912 23.3899 108.446 20.3823 107.658 17.8017C107.561 17.4865 107.46 17.1778 107.355 16.8758C107.179 16.3728 106.989 15.8885 106.789 15.4243C106.519 14.7975 106.228 14.2075 105.918 13.6583C104.458 11.0668 102.792 9.67106 101.238 9.20117V15.4243H105.326C105.672 16.1623 105.988 16.9659 106.267 17.8267H101.238V25.4344H107.555C107.57 25.8304 107.577 26.2309 107.577 26.6357C107.577 27.0406 107.57 27.4411 107.555 27.837H101.238V35.4448H106.266C105.988 36.3056 105.672 37.1092 105.326 37.8472H101.238V44.0704C102.792 43.6006 104.458 42.2048 105.918 39.6132C106.228 39.064 106.519 38.474 106.789 37.8472C107.038 37.2702 107.269 36.662 107.481 36.0256ZM110.167 17.8267C110.808 20.1458 111.205 22.7172 111.294 25.4344H117.614C117.428 22.6763 116.607 20.0921 115.297 17.8267H110.167ZM113.627 15.4243H109.382C108.612 13.4054 107.639 11.6493 106.516 10.2476C109.307 11.3518 111.747 13.1479 113.627 15.4243ZM98.8355 9.20092V15.4243H93.2832C93.5537 14.7975 93.8447 14.2075 94.1546 13.6583C95.6142 11.0663 97.2809 9.67046 98.8355 9.20092ZM93.5562 10.2475C92.4331 11.6492 91.4615 13.4053 90.691 15.4243H86.445C88.3249 13.1478 90.7664 11.3517 93.5562 10.2475ZM89.9052 17.8267H82.2178V19.1614H84.078C83.1739 21.0876 82.6086 23.2041 82.4584 25.4344H88.7778C88.8685 22.7172 89.264 20.1458 89.9052 17.8267ZM98.8355 17.8267H92.4074C91.7209 20.08 91.2817 22.6576 91.1824 25.4344H98.8355V17.8267ZM111.294 27.837C111.205 30.5542 110.808 33.1256 110.167 35.4448H115.297C116.607 33.1794 117.428 30.5951 117.614 27.837H111.294ZM92.4074 35.4448C91.7209 33.1915 91.2817 30.6138 91.1824 27.837H98.8355V35.4448H92.4074ZM89.9052 35.4448C89.264 33.1256 88.8685 30.5542 88.7778 27.837H82.4584C82.6442 30.5951 83.4648 33.1794 84.7751 35.4448H89.9052ZM109.382 37.8472C108.612 39.8661 107.639 41.6221 106.517 43.0238C109.307 41.9196 111.747 40.1235 113.627 37.8472H109.382ZM93.2832 37.8472H98.8355V44.0707C97.2809 43.6011 95.6142 42.2052 94.1546 39.6132C93.8447 39.064 93.5537 38.474 93.2832 37.8472ZM90.691 37.8472L82.2178 37.8473V39.1819H87.6675C89.3385 40.8295 91.3365 42.1457 93.5562 43.024C92.4331 41.6223 91.4615 39.8662 90.691 37.8472ZM64.0857 15.2289C62.8622 15.2313 61.8612 15.5843 61.8661 16.8151V17.052C61.8612 18.2804 62.8622 18.6358 64.0857 18.6382C65.3068 18.6358 66.3078 18.2804 66.303 17.052V16.8151C66.303 15.5867 65.3092 15.2289 64.0857 15.2289ZM26.0754 15.3087V18.5584H27.3424V15.3087H26.0754ZM31.1845 17.0303L29.7579 15.3087H28.0146V18.5584H29.2816V16.5733L31.0274 18.5584H32.454V15.3087H31.1845V17.0303ZM35.6674 16.3435V18.5633H34.4005V16.3435H32.8941V15.3135H37.1738V16.3435H35.6674ZM37.5994 18.5633H41.4029V17.7291H38.8664V17.3132H41.4029V16.5611H38.8664V16.1453H41.4029V15.3135H37.5994V18.5633ZM42.0774 18.5608V15.3111H45.2087C45.8785 15.3039 46.4467 15.8672 46.437 16.5394C46.437 16.7836 46.3717 17.006 46.2412 17.2044C46.113 17.4002 45.9414 17.5501 45.7286 17.6493L46.437 18.5608H45.0878L44.4761 17.7678H43.3445V18.5608H42.0774ZM50.0011 17.0303L48.5745 15.3087H46.8312V18.5584H48.0982V16.5733L49.8439 18.5584H51.2705V15.3087H50.0011V17.0303ZM52.7939 18.5633H51.3673L53.1106 15.3135H54.617L56.3604 18.5633H54.9338L54.6775 18.0071H53.0502L52.7939 18.5633ZM58.2947 18.5633V16.3435H59.8011V15.3135H55.5214V16.3435H57.0277V18.5633H58.2947ZM60.2266 18.5584V15.3087H61.4937V18.5584H60.2266ZM68.426 15.3087L69.8526 17.0303V15.3087H71.122V18.5584H69.6954L67.9497 16.5733V18.5584H66.6826V15.3087H68.426ZM71.2187 18.5633H72.6453L72.9016 18.0071H74.5287L74.7856 18.5633H76.2117L74.4688 15.3135H72.9621L71.2187 18.5633ZM76.311 18.5584V15.3087H77.578V17.5283H80.1145V18.5584H76.311ZM29.3583 34.7665C28.7757 34.7665 28.0608 34.8524 28.0608 35.2348C28.0608 35.4457 28.6434 35.4743 29.3976 35.51L29.4059 35.5104C30.7458 35.5783 32.6217 35.6733 32.6182 36.8754C32.6182 38.248 31.0454 38.5733 29.3583 38.5733C27.6748 38.5697 26.2772 38.3659 26.0985 36.8754H28.0608C28.2752 37.2472 28.7721 37.3436 29.3583 37.3436C29.941 37.3436 30.6558 37.2472 30.6558 36.8754C30.6558 36.6645 30.0732 36.6324 29.319 36.5967L29.3106 36.5962C27.9708 36.5283 26.0949 36.4333 26.0985 35.2348C26.0985 33.8623 27.6712 33.5334 29.3583 33.5334C31.0418 33.5441 32.4394 33.7335 32.6182 35.2348H30.6558C30.4413 34.8559 29.9445 34.7665 29.3583 34.7665ZM36.7751 35.1812V38.4624H34.9022V35.1812H32.6753V33.6585H39.002V35.1812H36.7751ZM37.7581 38.4624H39.8669L40.2458 37.6404H42.6514L43.0303 38.4624H45.1392L42.562 33.6585H40.3352L37.7581 38.4624ZM47.8629 33.6513L49.9717 36.1963V33.6513H51.8483V38.4553H49.7394L47.1587 35.5208V38.4553H45.2857V33.6513H47.8629ZM52.942 33.6585V38.4624H57.217C58.5359 38.4803 59.5153 37.3651 59.5046 36.0604C59.5153 34.7487 58.5359 33.6406 57.217 33.6585H52.942ZM61.2417 38.4624H59.1329L61.71 33.6585H63.9368L66.5139 38.4624H64.405L64.0261 37.6404H61.6206L61.2417 38.4624ZM66.6604 33.6549V38.4589H68.5335V37.2865H70.2063L71.1105 38.4589H73.105L72.0577 37.1113C72.3723 36.9648 72.6261 36.7432 72.8155 36.4536C73.0086 36.1606 73.105 35.8317 73.105 35.4707C73.1193 34.477 72.2794 33.6442 71.2893 33.6549H66.6604ZM73.6877 38.4624V33.6585H77.9624C79.2815 33.6406 80.2608 34.7487 80.2506 36.0604C80.2608 37.3651 79.2815 38.4803 77.9624 38.4624H73.6877ZM40.2657 31.1533H36.5377V27.631L34.9925 31.1533H31.8307L30.3099 27.6491V31.1533H26.5703V21.2205H31.2896L33.4321 26.1672L35.6797 21.2205H40.2657V31.1533ZM52.4269 31.1533H42.0033V21.2205H52.3451V24.2707H45.8482V24.691H52.1582V27.6828H45.8482V28.1147H52.4269V31.1533ZM65.6674 31.1533H62.4285L62.3741 30.5636C61.5622 31.0247 60.463 31.2935 59.0475 31.2935C57.0339 31.2935 55.2718 30.6913 54.2602 29.3821C53.6584 28.6099 53.3157 27.481 53.3157 26.2044C53.3157 25.0413 53.6133 23.9721 54.2836 23.1086L54.2857 23.1057L54.288 23.1031C55.3061 21.8399 57.1054 21.0569 59.6669 21.0569C62.5945 21.0569 64.4604 21.9566 65.2777 23.6178L65.2784 23.6191L65.279 23.6204C65.4691 24.014 65.5719 24.5341 65.5852 24.8688L65.5889 24.9597H65.6674V31.1533ZM70.9332 29.4589L70.0802 31.1533H65.9056L71.2073 21.2205H75.4439L80.4543 31.1533H76.2194L75.4139 29.4589H70.9332ZM26.0271 43.3862H80.4158V42.0515H26.0271V43.3862Z" fill="#1D51FE"/>
<path fill-rule="evenodd" clip-rule="evenodd" d="M28.3628 1.80957H100.036C113.747 1.80957 124.862 12.9243 124.862 26.635C124.862 40.3458 113.747 51.4605 100.036 51.4605H28.3628C14.652 51.4605 3.53735 40.3458 3.53735 26.635C3.53735 12.9243 14.652 1.80957 28.3628 1.80957ZM28.3628 4.21207C15.9789 4.21207 5.93986 14.2511 5.93986 26.635C5.93986 39.0189 15.9789 49.058 28.3628 49.058H100.036C112.42 49.058 122.459 39.0189 122.459 26.635C122.459 14.2511 112.42 4.21207 100.036 4.21207H28.3628Z" fill="#1D51FE"/>
</svg>
