<svg width="81" height="58" viewBox="0 0 81 58" fill="none" xmlns="http://www.w3.org/2000/svg">
<path d="M6.76933 51.8988V40.2373H4.85474V51.8988H6.76933Z" fill="#1D51FE"/>
<path d="M7.9411 48.0118C7.9411 50.3942 9.54185 52.087 11.9743 52.087C14.4068 52.087 16.0075 50.3942 16.0075 48.0118C16.0075 45.6293 14.4068 43.9365 11.9743 43.9365C9.54185 43.9365 7.9411 45.6293 7.9411 48.0118ZM9.87138 48.0118C9.87138 46.6168 10.7032 45.645 11.9743 45.645C13.2455 45.645 14.0772 46.6168 14.0772 48.0118C14.0772 49.391 13.2455 50.3785 11.9743 50.3785C10.7032 50.3785 9.87138 49.391 9.87138 48.0118Z" fill="#1D51FE"/>
<path d="M16.6516 47.8551C16.6516 50.1123 18.1111 51.7424 20.2925 51.7424C21.4224 51.7424 22.3954 51.2878 22.8819 50.5355V51.8521C22.8819 53.1216 22.0815 53.9681 20.7476 53.9681C19.5549 53.9681 18.7388 53.3881 18.629 52.3693H16.6987C16.9498 54.3913 18.5034 55.7079 20.6377 55.7079C23.1487 55.7079 24.7494 54.0621 24.7494 51.5072V44.1561H23.0545L22.9447 45.2062C22.4739 44.3912 21.5009 43.9053 20.3552 43.9053C18.1424 43.9053 16.6516 45.5824 16.6516 47.8551ZM18.5976 47.8081C18.5976 46.5228 19.4137 45.5824 20.6221 45.5824C21.9403 45.5824 22.8191 46.5386 22.8191 47.8081C22.8191 49.0934 21.9403 50.0809 20.6221 50.0809C19.4293 50.0809 18.5976 49.1091 18.5976 47.8081Z" fill="#1D51FE"/>
<path d="M25.6968 48.0118C25.6968 50.3942 27.2976 52.087 29.73 52.087C32.1625 52.087 33.7632 50.3942 33.7632 48.0118C33.7632 45.6293 32.1625 43.9365 29.73 43.9365C27.2976 43.9365 25.6968 45.6293 25.6968 48.0118ZM27.6271 48.0118C27.6271 46.6168 28.4589 45.645 29.73 45.645C31.0012 45.645 31.8329 46.6168 31.8329 48.0118C31.8329 49.391 31.0012 50.3785 29.73 50.3785C28.4589 50.3785 27.6271 49.391 27.6271 48.0118Z" fill="#1D51FE"/>
<path d="M35.8353 42.5725C36.463 42.5725 36.9809 42.0709 36.9809 41.4283C36.9809 40.8014 36.463 40.2998 35.8353 40.2998C35.1919 40.2998 34.7053 40.8014 34.7053 41.4283C34.7053 42.0709 35.1919 42.5725 35.8353 42.5725ZM34.878 51.8986H36.7926V44.1556H34.878V51.8986Z" fill="#1D51FE"/>
<path d="M38.47 55.4883H40.3374V50.8332C40.824 51.6325 41.8754 52.1028 43.0367 52.1028C45.328 52.1028 46.6933 50.3473 46.6619 47.9334C46.6148 45.504 45.2181 43.9209 43.021 43.9209C41.844 43.9209 40.7769 44.4381 40.306 45.3316L40.1962 44.156H38.47V55.4883ZM40.4159 48.0275C40.4159 46.6325 41.2634 45.6607 42.5973 45.6607C43.9313 45.6607 44.7316 46.6482 44.7316 48.0275C44.7316 49.4068 43.9313 50.3786 42.5973 50.3786C41.2634 50.3786 40.4159 49.4225 40.4159 48.0275Z" fill="#1D51FE"/>
<path d="M47.1479 49.5792C47.2108 51.1153 48.4034 52.1028 50.2552 52.1028C52.0757 52.1028 53.3154 51.131 53.3154 49.6263C53.3154 48.5134 52.625 47.761 51.3538 47.4476L49.9885 47.1184C49.4078 46.9617 49.0155 46.7579 49.0155 46.2564C49.0155 45.7234 49.4392 45.3473 50.1297 45.3473C50.8516 45.3473 51.3224 45.7547 51.3224 46.4288H53.0644C53.0016 44.8927 51.856 43.9209 50.1768 43.9209C48.5133 43.9209 47.2735 44.8927 47.2735 46.3661C47.2735 47.3692 47.8542 48.1999 49.3451 48.5918L50.6947 48.9366C51.1969 49.0777 51.5107 49.3128 51.5107 49.7516C51.5107 50.363 50.9301 50.6451 50.2239 50.6451C49.3764 50.6451 48.8899 50.2532 48.8899 49.5792H47.1479Z" fill="#1D51FE"/>
<path d="M57.2868 52.102C58.3383 52.102 59.3426 51.6161 59.7977 50.8951L59.9233 51.8982H61.7123V44.1553H59.7977V48.2148C59.7977 49.6098 59.2642 50.3935 58.0087 50.3935C57.0358 50.3935 56.3609 49.9233 56.3609 48.3245V44.1553H54.4463V48.9986C54.4463 50.848 55.4507 52.102 57.2868 52.102Z" fill="#1D51FE"/>
<path d="M65.3169 51.899V47.4476C65.3169 46.1936 66.0545 45.598 66.9647 45.598C67.8749 45.598 68.4713 46.1779 68.4713 47.2752V51.899H70.3388V47.4632C70.3388 46.1936 71.0607 45.598 71.9709 45.598C72.8968 45.598 73.4932 46.1779 73.4932 47.2752V51.899H75.345V46.8363C75.345 45.0495 74.3563 43.9209 72.4731 43.9209C71.2961 43.9209 70.3702 44.4852 69.9936 45.3943C69.5698 44.4852 68.7224 43.9209 67.4355 43.9209C66.5253 43.9209 65.7092 44.3441 65.2541 45.0338L65.16 44.156H63.4023V51.899H65.3169Z" fill="#1D51FE"/>
<path d="M35.4421 29.6809C32.9198 34.2136 27.7842 36.3701 22.5913 36.3701H1.75635C23.4456 33.6628 38.5506 22.8335 40.4872 7.75C42.4237 22.8335 57.5288 33.6628 79.218 36.3701H58.3831C53.1902 36.3701 48.0546 34.2136 45.5323 29.6809C42.8022 24.7751 41.0629 19.2239 40.4872 13.1646C39.9115 19.2239 38.1722 24.7751 35.4421 29.6809Z" fill="#1D51FE"/>
<path d="M23.527 28.0786C22.3103 28.7626 21.0304 29.4051 19.6904 30.0036C18.9291 27.3778 18.649 24.6229 18.8724 21.8787C19.168 18.2482 20.3355 14.7481 22.2718 11.6886C24.2081 8.62913 26.8532 6.10452 29.9729 4.3385C33.0925 2.57249 36.5906 1.61954 40.157 1.56409C43.7234 1.50863 47.2481 2.35237 50.419 4.02057C53.5899 5.68877 56.3091 8.1299 58.3355 11.1278C60.3621 14.1257 61.6335 17.5878 62.0371 21.2074C62.3672 24.168 62.1085 27.1594 61.2839 30.0036C59.9438 29.4051 58.664 28.7626 57.4473 28.0785C57.9602 25.9992 58.104 23.836 57.865 21.6927C57.5395 18.7739 56.5143 15.982 54.8801 13.5645C53.2459 11.1471 51.0532 9.17848 48.4962 7.83326C45.9392 6.48802 43.0968 5.80763 40.2209 5.85235C37.3449 5.89707 34.5241 6.66552 32.0085 8.0896C29.4927 9.51372 27.3597 11.5495 25.7983 14.0167C24.2369 16.4839 23.2953 19.3063 23.0571 22.234C22.8969 24.2018 23.0577 26.1765 23.527 28.0786Z" fill="#1D51FE"/>
</svg>
