<svg width="1384" height="659" viewBox="0 0 1384 659" fill="none" xmlns="http://www.w3.org/2000/svg">
<path d="M19 658C131.313 646.187 350.271 608.122 443.227 529.565C558.046 432.531 610.871 271.921 630.456 128.884C633.89 103.803 632.041 78.2721 633.618 53.0071C634.317 41.8138 631.894 29.3996 637.279 19.5615C661.902 -25.4204 761.235 23.8165 782.07 37.0331C876.497 96.9326 969.488 219.106 944.667 336.712C935.498 380.159 906.714 418.668 917.873 464.67C922.001 481.687 945.955 551.016 974.291 537.718C995.852 527.6 1015.6 502.071 1028.05 485.303C1083.77 410.228 1120.81 325.545 1162.19 242.366C1173.48 219.668 1204.52 153.404 1227.76 131.546C1265.31 96.2293 1308.44 128.071 1333.6 159.168C1346.87 175.559 1359.04 193.317 1367.22 212.747C1375.93 233.432 1395.01 305.541 1372.21 329.224C1357.17 344.861 1331.77 350.623 1310.14 348.859C1214.25 341.039 1079.82 264.321 1005.41 225.726C928.576 185.87 789.877 101.36 699.855 70.4787C610.1 39.6884 507.096 54.6694 417.598 78.6321C360.506 93.918 314.574 114.04 269.812 152.845C225.55 191.215 198.019 243.117 168.458 292.284C138.172 342.659 87.2908 361.225 37.4815 387.796C24.9895 394.459 16.2929 399.172 6.19351 408.096C4.1528 409.899 -0.828573 413.907 1.70002 414.918C3.50939 415.642 5.60379 414.746 7.52491 414.419C52.623 406.744 97.8154 400.434 142.995 393.12C302.108 367.362 469.409 345.387 613.481 268.822C629.1 260.522 624.565 261.5 627.294 283.133C637.459 363.709 639.164 448.526 658.249 527.568C663.865 550.829 669.508 575.49 683.879 594.625C712.74 633.056 756.38 624.165 796.216 620.25C944.667 620.25 1001.37 518.03 1053 505" stroke="white" stroke-width="2" stroke-linecap="round"/>
<path d="M671.323 35.9551C673.219 32.7229 675.784 29.9328 678.846 27.7716C681.908 25.6105 685.396 24.1279 689.076 23.4232C692.757 22.7185 696.546 22.8078 700.189 23.6852C703.833 24.5627 707.247 26.2079 710.204 28.511C713.16 30.8141 715.591 33.7219 717.333 37.04C719.075 40.358 720.089 44.0099 720.306 47.7512C720.523 51.4925 719.939 55.2372 718.593 58.7346C717.246 62.2321 715.169 65.4017 712.499 68.0316L702.919 58.3059C704.204 57.0398 705.205 55.5139 705.853 53.8302C706.501 52.1465 706.782 50.3439 706.678 48.5427C706.573 46.7416 706.085 44.9836 705.246 43.3863C704.408 41.7889 703.237 40.3891 701.814 39.2803C700.391 38.1716 698.747 37.3796 696.993 36.9572C695.239 36.5348 693.415 36.4918 691.643 36.831C689.871 37.1703 688.192 37.884 686.718 38.9244C685.244 39.9648 684.01 41.308 683.097 42.864L671.323 35.9551Z" fill="#1D51FE"/>
</svg>
