<svg width="94" height="46" viewBox="0 0 94 46" fill="none" xmlns="http://www.w3.org/2000/svg">
<path d="M84.5762 4.04367C85.4475 5.34491 86.2839 6.95014 85.8726 8.67041C84.4533 7.85863 83.3116 6.53324 82.4064 5.2248C81.4948 3.90756 80.5482 2.50686 80.2238 0.883301C82.0142 1.34088 83.6169 2.61109 84.5762 4.04367Z" fill="#1D51FE"/>
<path d="M7.62582 8.66821C7.2156 6.9477 8.05364 5.34316 8.92655 4.04271C9.88744 2.61103 11.4907 1.34203 13.2812 0.885742C12.9559 2.50892 12.0079 3.90904 11.0953 5.22538C10.1889 6.53314 9.04569 7.85763 7.62582 8.66821Z" fill="#1D51FE"/>
<path d="M6.37668 11.9682C6.6969 10.6057 6.6898 9.11401 6.38494 7.83599C6.11687 6.71282 5.72679 5.12509 4.44292 4.58936C3.50969 6.08515 3.13456 8.12208 3.67844 9.64837C4.0717 10.7524 4.77893 12.212 6.24566 12.438C7.59154 12.748 8.95248 12.0306 10.0273 11.4383C11.2225 10.7798 12.3931 9.73215 13.1044 8.48665C11.7996 7.82858 10.3137 8.36262 9.19586 8.87442C7.99085 9.42615 6.88389 10.6099 6.37668 11.9682Z" fill="#1D51FE"/>
<path d="M32.4962 13.2764V6.43555H30.1589V8.9279H26.653V6.43555H24.3157V13.2764H26.653V10.7928H30.1589V13.2764H32.4962Z" fill="#1D51FE"/>
<path d="M40.2466 6.43555H42.8281L39.1652 11.0194V13.2764H36.8192V11.028L33.2 6.43555H35.8598L38.0227 9.17183L40.2466 6.43555Z" fill="#1D51FE"/>
<path fill-rule="evenodd" clip-rule="evenodd" d="M50.9682 7.01936C51.4305 7.38542 51.6921 8.00419 51.6921 8.90174C51.6921 9.63374 51.5089 10.1827 51.1601 10.5662C50.6891 11.1065 49.913 11.3505 48.9013 11.3592C48.5873 11.3679 45.9012 11.3592 45.9012 11.3592V13.2764H43.5552V6.43555H48.8664C49.8082 6.43555 50.5234 6.62726 50.9682 7.01936ZM49.2327 9.43334C49.3025 9.31133 49.3374 9.15446 49.3374 8.93659C49.3374 8.71003 49.2937 8.51832 49.2153 8.41378C49.067 8.1959 48.7879 8.09126 48.3344 8.09126H45.8838V9.76444H48.3169C48.8054 9.76444 49.0932 9.65122 49.2327 9.43334Z" fill="#1D51FE"/>
<path d="M59.8379 11.577V13.2764H52.6257V6.43555H59.7775V8.14358H54.9281V9.02376H59.6375V10.6882H54.9281V11.577H59.8379Z" fill="#1D51FE"/>
<path fill-rule="evenodd" clip-rule="evenodd" d="M68.5944 7.1327C68.9093 7.45511 69.0566 7.89955 69.0566 8.51832C69.0566 9.04992 68.9262 9.50304 68.7079 9.80808C68.4641 10.1392 68.0888 10.4181 67.6267 10.4878L69.6937 13.2764H67.0945L65.3943 10.8625H63.2754V13.2764H60.9465V6.43555H66.3971C67.4783 6.43555 68.1853 6.69695 68.5944 7.1327ZM66.7108 9.09345C66.7723 8.98891 66.7893 8.84942 66.7893 8.73619C66.7893 8.60549 66.7723 8.46599 66.7108 8.37882C66.5889 8.15226 66.3451 8.09126 65.9784 8.09126H63.2838V9.33749H66.0218C66.3971 9.33749 66.6239 9.26779 66.7108 9.09345Z" fill="#1D51FE"/>
<path d="M58.5892 21.8568C58.5892 20.2931 57.595 19.4713 55.2762 19.2202C54.8992 19.1746 53.7912 19.0604 53.0944 19.0033C51.3009 18.8093 50.7642 18.7066 50.7642 18.25C50.7642 17.8392 51.1868 17.6451 52.7974 17.6451C53.9397 17.6451 54.5794 17.8619 54.8306 18.1929C54.9564 18.3528 55.0021 18.4783 55.0135 18.6039H58.3033C58.269 18.3299 58.1548 17.9418 57.972 17.5995C57.378 16.458 55.9501 15.5449 52.8774 15.5449C49.4162 15.5449 47.52 16.7662 47.52 18.3642C47.52 19.9051 48.5937 20.8067 51.4951 21.0693C51.8232 21.0974 52.5278 21.1639 53.1047 21.2183L53.1403 21.2217L53.1467 21.2224L53.1493 21.2226L53.46 21.2519C54.9792 21.4117 55.3904 21.5144 55.3904 21.9938C55.3904 22.4389 54.9906 22.6786 53.3115 22.6786C52.0092 22.6786 51.2439 22.4846 50.9697 22.1536C50.8555 22.0166 50.7755 21.8111 50.7527 21.6742H47.4629C47.4971 21.9024 47.5543 22.2677 47.6799 22.5645C48.2397 23.8201 49.7018 24.7788 53.0944 24.7788C56.7383 24.7788 58.5892 23.7515 58.5892 21.8568Z" fill="#1D51FE"/>
<path fill-rule="evenodd" clip-rule="evenodd" d="M35.2672 23.7283C35.6099 23.3288 35.7812 22.7238 35.7812 22.1075C35.7812 21.5825 35.6441 21.0802 35.3585 20.7493C35.0158 20.3041 34.4104 19.9846 33.7708 19.9047C34.2048 19.8476 34.616 19.6194 34.8559 19.3226C35.1529 18.9688 35.29 18.4894 35.29 17.9073C35.29 17.3252 35.1187 16.8116 34.7303 16.4236C34.2962 15.9784 33.508 15.6816 32.2743 15.6816H24.5295V24.6414H32.4913C33.7593 24.6414 34.7417 24.3674 35.2672 23.7283ZM32.1144 18.4438C32.1144 18.6607 32.0458 18.8433 31.9317 18.9688C31.7717 19.1171 31.4747 19.1742 31.0863 19.1742H27.5224V17.7133H31.0064C31.4404 17.7133 31.7375 17.7704 31.8973 17.9187C32.0458 18.0442 32.1144 18.2268 32.1144 18.4438ZM32.4571 22.3701C32.2743 22.5412 31.9544 22.6097 31.4175 22.6097H27.5224V21.1146H31.4519C31.9544 21.1146 32.2514 21.183 32.4227 21.3314C32.5599 21.4683 32.6169 21.6396 32.6169 21.8678C32.6169 22.0847 32.5713 22.2559 32.4571 22.3701Z" fill="#1D51FE"/>
<path d="M46.5368 22.4157V24.6414H37.0901V15.6816H46.4569V17.9187H40.1057V19.0715H46.2742V21.2515H40.1057V22.4157H46.5368Z" fill="#1D51FE"/>
<path d="M69.7043 17.9302V15.6816H59.0015V17.9302H62.7825V24.6414H65.9116V17.9302H69.7043Z" fill="#1D51FE"/>
<path d="M69.4329 32.5728H68.9294L68.8933 32.0881C68.7396 32.3334 68.4142 32.6279 67.7273 32.6279C66.5666 32.6279 66.0271 31.9285 66.0271 30.1427C66.0271 28.762 66.3705 27.6514 67.7878 27.6514C69.0163 27.6514 69.3905 28.4553 69.4085 29.3205H68.7948C68.7767 28.756 68.5245 28.2343 67.8005 28.2343C66.9292 28.2343 66.6769 28.756 66.6769 30.1612C66.6769 31.6278 66.9906 32.0881 67.8132 32.0881C68.3898 32.0881 68.7269 31.769 68.8382 31.3885V30.4742H67.598V29.9157H69.4265V31.3272C69.4265 31.7489 69.4308 32.1989 69.4318 32.4252L69.4329 32.5329V32.5728Z" fill="#1D51FE"/>
<path fill-rule="evenodd" clip-rule="evenodd" d="M24.6454 31.3525H26.364L26.7199 32.574H27.3706L25.9466 27.7129H25.1548L23.6326 32.574H24.2771L24.6454 31.3525ZM26.2105 30.8063H24.8111C24.8111 30.8063 25.4187 28.8422 25.431 28.7993C25.4371 28.7685 25.5354 28.3328 25.5354 28.3328L25.6033 28.6551L25.6335 28.7993C25.6397 28.8299 26.2105 30.8063 26.2105 30.8063Z" fill="#1D51FE"/>
<path d="M32.0291 27.7129H32.6184L31.4706 32.574H30.7402C30.7402 32.574 29.9238 28.7931 29.9238 28.6335C29.9177 28.7931 29.0829 32.574 29.0829 32.574H28.3526L27.2048 27.7129H27.8677C27.8677 27.7129 28.7576 31.5612 28.7576 31.7147C28.7576 31.5612 29.574 27.7129 29.574 27.7129H30.3044C30.3044 27.7129 31.1207 31.5674 31.1207 31.7147C31.1207 31.5674 32.0291 27.7129 32.0291 27.7129Z" fill="#1D51FE"/>
<path fill-rule="evenodd" clip-rule="evenodd" d="M35.1388 31.3525H33.4202L33.052 32.574H32.4075L33.9296 27.7129H34.7215L36.1455 32.574H35.4948L35.1388 31.3525ZM33.586 30.8063H34.9854C34.9854 30.8063 34.4146 28.8299 34.4084 28.7993L34.362 28.5781L34.3102 28.3328C34.3102 28.3328 34.212 28.7685 34.2059 28.7993C34.1936 28.8422 33.586 30.8063 33.586 30.8063Z" fill="#1D51FE"/>
<path fill-rule="evenodd" clip-rule="evenodd" d="M38.5109 27.7129C39.2597 27.7129 39.6648 28.0627 39.6648 29.0816C39.6648 29.9471 39.3395 30.2355 39.0019 30.3336L39.9349 32.574H39.2597L38.3943 30.4565H37.2159V32.574H36.6021V27.7129H38.5109ZM38.4189 29.904C38.9037 29.904 39.0203 29.6524 39.0203 29.1C39.0203 28.474 38.8362 28.2837 38.3882 28.2837H37.2219V29.904H38.4189Z" fill="#1D51FE"/>
<path fill-rule="evenodd" clip-rule="evenodd" d="M43.7513 30.0637C43.7513 31.2114 43.6654 31.6778 43.4199 32.0277C43.1744 32.3653 42.7877 32.574 42.1616 32.574H40.4922V27.7129H42.1187C42.7325 27.7129 43.2112 27.897 43.4322 28.2285C43.6777 28.5844 43.7513 29.0263 43.7513 30.0637ZM42.0328 31.997C42.4072 31.997 42.7202 31.8988 42.8797 31.684C43.0517 31.4508 43.1007 30.9781 43.1007 30.0637C43.1007 29.2964 43.0577 28.8852 42.8797 28.6212C42.7141 28.3942 42.3949 28.2959 42.0205 28.2959H41.1121V31.997H42.0328Z" fill="#1D51FE"/>
<path d="M50.2266 27.7129H50.8159L49.6681 32.574H48.9377C48.9377 32.574 48.1214 28.7931 48.1214 28.6335C48.1152 28.7931 47.2805 32.574 47.2805 32.574H46.5501L45.4023 27.7129H46.0652C46.0652 27.7129 46.9551 31.5612 46.9551 31.7147C46.9551 31.5612 47.7714 27.7129 47.7714 27.7129H48.5019C48.5019 27.7129 49.3182 31.5674 49.3182 31.7147C49.3182 31.5674 50.2266 27.7129 50.2266 27.7129Z" fill="#1D51FE"/>
<path d="M51.9013 27.7129V32.574H51.2629V27.7129H51.9013Z" fill="#1D51FE"/>
<path d="M55.8971 27.7129V32.574H55.1913L53.3806 28.8053V32.574H52.7852V27.7129H53.5279L55.2956 31.4262V27.7129H55.8971Z" fill="#1D51FE"/>
<path d="M59.8771 27.7129V32.574H59.1712L57.3608 28.8053V32.574H56.7654V27.7129H57.5081L59.2761 31.4262V27.7129H59.8771Z" fill="#1D51FE"/>
<path d="M61.3832 27.7129V32.574H60.7451V27.7129H61.3832Z" fill="#1D51FE"/>
<path d="M65.3795 27.7129V32.574H64.6735L62.8631 28.8053V32.574H62.2673V27.7129H63.0104L64.7785 31.4262V27.7129H65.3795Z" fill="#1D51FE"/>
<path d="M31.5553 42.1448L30.852 39.981L30.1486 42.1448H27.8726L29.7139 43.4822L29.0106 45.646L30.852 44.3086L32.6934 45.646L31.99 43.4822L33.8315 42.1448H31.5553Z" fill="#1D51FE"/>
<path d="M39.6892 42.1444L38.9715 39.981L38.2537 42.1444H35.9312L37.8102 43.4814L37.0925 45.6448L38.9715 44.3078L40.8505 45.6448L40.1328 43.4814L42.0117 42.1444H39.6892Z" fill="#1D51FE"/>
<path d="M47.7453 42.1444L47.0276 39.981L46.3099 42.1444H43.9873L45.8663 43.4814L45.1485 45.6448L47.0276 44.3078L48.9066 45.6448L48.1888 43.4814L50.0679 42.1444H47.7453Z" fill="#1D51FE"/>
<path d="M55.801 42.1444L55.0833 39.981L54.3655 42.1444H52.043L53.9219 43.4814L53.2042 45.6448L55.0833 44.3078L56.9622 45.6448L56.2445 43.4814L58.1236 42.1444H55.801Z" fill="#1D51FE"/>
<path d="M63.9063 42.1444L63.2035 39.981L62.4997 42.1444H60.2239L62.0651 43.4814L61.3623 45.6448L63.2035 44.3078L65.0448 45.6448L64.3409 43.4814L66.1832 42.1444H63.9063Z" fill="#1D51FE"/>
<path d="M2.23226 15.644C2.89413 16.653 3.9183 17.9168 5.41163 17.8808C6.7696 17.9485 7.94281 17.0225 8.86671 16.2496C9.86174 15.4173 10.7599 14.2 11.139 12.8839C9.75012 12.4802 8.42035 13.2282 7.42871 13.9337C6.3932 14.6705 5.59681 16.0191 5.42573 17.4037C5.4129 16.0165 5.03713 14.5838 4.43134 13.4296C3.87749 12.3745 3.1057 10.9482 1.72876 10.6631C1.18625 12.3049 1.35935 14.3137 2.23226 15.644Z" fill="#1D51FE"/>
<path d="M5.85353 23.3156C4.46757 23.5477 3.11564 22.6992 2.23764 21.7012C1.10726 20.4162 0.434681 18.6925 0.571845 16.9668C1.99564 17.0029 3.07398 18.2327 3.871 19.1626C4.72939 20.1641 5.4327 21.4818 5.7701 22.8411C5.6217 21.4865 6.07687 20.0237 6.9218 19.1198C7.73737 18.2473 8.87984 17.2964 10.3013 17.449C10.2707 18.8226 9.58156 20.1313 8.87083 21.1114C8.20832 22.0248 7.18775 23.1546 5.85353 23.3156Z" fill="#1D51FE"/>
<path d="M3.29325 27.8796C4.56971 28.71 6.11784 29.5319 7.74483 28.9099C9.07959 28.438 9.92823 27.0955 10.4502 25.8633C11.0031 24.5576 11.3724 23.0521 11.1167 21.623C9.64997 21.7531 8.43373 22.8017 7.78777 24.0817C7.11244 25.4199 6.9829 27.0127 7.50167 28.4157C6.73518 26.9723 5.61423 25.8045 4.42682 24.7254C3.34742 23.7445 1.79261 22.7111 0.226562 22.9055C0.524529 24.8401 1.70601 26.8471 3.29325 27.8796Z" fill="#1D51FE"/>
<path d="M11.0326 34.14C12.2887 33.3897 12.7942 31.8109 13.0008 30.458C13.2235 28.999 13.2139 27.39 12.6075 26.0059C11.1502 26.4126 10.1499 27.7232 9.8196 29.1587C9.47065 30.6753 9.76512 32.2917 10.614 33.583C9.48559 32.2894 7.98516 31.2214 6.54727 30.4724C5.15835 29.749 3.4544 28.8765 1.78638 29.4034C2.59071 31.3649 4.3113 33.1911 6.21824 33.9465C7.69504 34.5314 9.49164 35.1098 11.0326 34.14Z" fill="#1D51FE"/>
<path d="M16.9876 34.6477C17.1719 36.056 17.1667 37.8422 16.0725 38.9262C14.7051 40.3247 12.5889 40.0548 10.9567 39.7471C8.76547 39.3337 6.29884 37.8404 4.97681 35.852C6.5914 34.9636 8.56608 35.5319 10.1646 35.9919L10.2558 36.0181C12.0401 36.531 13.9416 37.3572 15.5318 38.4861C14.2628 37.3402 13.3381 35.6585 13.2928 33.9634C13.2521 32.4472 13.9107 30.8252 15.328 30.1025C16.3174 31.4001 16.7807 33.0661 16.9876 34.6477Z" fill="#1D51FE"/>
<path d="M23.3381 42.9144C24.1439 41.3816 23.3455 39.5827 22.7093 38.253C21.9572 36.6812 20.9295 35.0792 19.4587 33.9287C18.0465 35.1449 18.1808 36.8851 18.6007 38.3974C19.0999 40.1956 20.8308 41.7285 22.6232 42.602C20.5474 41.8285 18.2803 41.3643 16.1234 41.2272L15.905 41.2131C14.1722 41.1003 11.9164 40.9535 10.5356 42.2206C12.6233 43.9941 15.5887 45.0173 18.2022 44.9641C19.9536 44.9285 22.3567 44.7214 23.3381 42.9144Z" fill="#1D51FE"/>
<path d="M87.1189 11.9725C86.6133 10.6133 85.5067 9.42815 84.3025 8.87538C83.1842 8.36275 81.6991 7.82777 80.3943 8.48465C81.1045 9.73064 82.2737 10.7791 83.4683 11.4385C84.5421 12.0314 85.9021 12.7498 87.2483 12.441C88.7153 12.2165 89.4244 10.7572 89.8187 9.65322C90.3646 8.12772 89.9915 6.09044 89.0598 4.59375C87.7751 5.12873 87.3829 6.71597 87.1147 7.83899C86.8084 9.11729 86.7999 10.6094 87.1189 11.9725Z" fill="#1D51FE"/>
<path d="M86.0644 13.9379C87.099 14.6751 87.8929 16.023 88.0636 17.4067C88.0784 16.0202 88.4558 14.5888 89.0621 13.4357C89.6165 12.3808 90.3903 10.9551 91.7672 10.6709C92.3078 12.3133 92.1329 14.3222 91.2584 15.6518C90.597 16.659 89.573 17.9203 88.0827 17.8865C86.7227 17.9558 85.5482 17.0275 84.6239 16.253C83.6296 15.4197 82.7328 14.2017 82.3555 12.8854C83.7441 12.4825 85.0733 13.2316 86.0644 13.9379Z" fill="#1D51FE"/>
<path d="M87.7139 22.8514C87.8655 21.4953 87.4118 20.0291 86.5659 19.1232C85.7518 18.2499 84.6102 17.2979 83.1887 17.4495C83.2173 18.8234 83.9053 20.133 84.6155 21.1139C85.2769 22.0276 86.2956 23.1576 87.6291 23.3204C89.0156 23.5551 90.3692 22.7069 91.249 21.7087C92.38 20.4244 93.0542 18.7009 92.9195 16.9746C91.4949 17.0098 90.4158 18.2389 89.6176 19.1684C88.7569 20.1707 88.052 21.4902 87.7139 22.8514Z" fill="#1D51FE"/>
<path d="M85.6956 24.0843C86.3698 25.4233 86.498 27.0165 85.9776 28.4191C86.745 26.9759 87.8675 25.8088 89.0558 24.7304C90.1359 23.7502 91.692 22.7182 93.2577 22.9136C92.9587 24.8482 91.7747 26.8544 90.1868 27.8857C88.9106 28.714 87.364 29.5342 85.7391 28.9147C84.4024 28.4437 83.5533 27.0983 83.0318 25.8639C82.4796 24.5578 82.1117 23.052 82.3693 21.623C83.8353 21.7543 85.0511 22.8039 85.6956 24.0843Z" fill="#1D51FE"/>
<path d="M82.8621 33.58C83.7101 32.2899 84.0058 30.6752 83.6592 29.1593C83.3306 27.7235 82.331 26.4122 80.8735 26.0044C80.2662 27.3879 80.2556 28.9968 80.476 30.4561C80.6817 31.8063 81.1841 33.3819 82.4328 34.135C83.9751 35.1124 85.776 34.5343 87.2547 33.9496C89.1627 33.1956 90.8853 31.3707 91.6909 29.4097C90.0235 28.8817 88.319 29.7529 86.9293 30.4753C85.492 31.2227 83.991 32.2886 82.8621 33.58Z" fill="#1D51FE"/>
<path d="M76.4853 34.6441C76.2998 36.0521 76.303 37.8381 77.3969 38.9231C78.7622 40.3226 80.879 40.0542 82.5114 39.7476C84.7035 39.3359 87.1712 37.8442 88.4951 35.857C86.8818 34.9676 84.906 35.5341 83.3075 35.9929L83.2153 36.0191C81.4313 36.5305 79.5297 37.355 77.9386 38.4821C79.2085 37.3373 80.1339 35.6569 80.1805 33.9625C80.2229 32.4465 79.5657 30.8239 78.1495 30.1001C77.1584 31.3969 76.6942 33.0627 76.4853 34.6441Z" fill="#1D51FE"/>
<path d="M75.2609 44.9586C73.5097 44.9216 71.1067 44.7128 70.1273 42.905L70.1135 42.8803C69.3312 41.3522 70.1262 39.5662 70.7601 38.2445C71.5138 36.6732 72.543 35.0721 74.0143 33.9229C75.4262 35.1399 75.2895 36.8799 74.8687 38.3918C74.3673 40.1896 72.6352 41.7214 70.8417 42.5934C72.9183 41.8215 75.1856 41.359 77.3427 41.2234L77.5621 41.2094C79.2952 41.098 81.5509 40.9531 82.93 42.2209C80.8407 43.9925 77.8748 45.0137 75.2609 44.9586Z" fill="#1D51FE"/>
</svg>
