<svg width="56" height="56" viewBox="0 0 56 56" fill="none" xmlns="http://www.w3.org/2000/svg">
<path d="M30.7291 44.3252C30.7786 39.2659 29.496 35.1518 27.8644 35.1358C26.2328 35.1199 24.87 39.2083 24.8206 44.2674C24.7711 49.3267 26.0537 53.441 27.6853 53.4568C29.317 53.4728 30.6798 49.3845 30.7291 44.3252Z" fill="#1D51FE"/>
<path d="M21.2666 43.1764C24.0436 38.9471 25.1891 34.7926 23.8253 33.897C22.4613 33.0014 19.1043 35.7038 16.3274 39.9331C13.5503 44.1624 12.4048 48.3168 13.7687 49.2125C15.1327 50.1081 18.4895 47.4056 21.2666 43.1764Z" fill="#1D51FE"/>
<path d="M13.9159 37.1081C18.5388 35.0519 21.7486 32.1764 21.0854 30.6855C20.4223 29.1946 16.1373 29.653 11.5145 31.7093C6.8917 33.7655 3.6818 36.641 4.34495 38.1319C5.00809 39.6228 9.29317 39.1644 13.9159 37.1081Z" fill="#1D51FE"/>
<path d="M20.5306 26.505C20.7789 24.8923 16.9263 22.961 11.9258 22.1913C6.9252 21.4216 2.67021 22.1051 2.422 23.7178C2.17378 25.3305 6.02632 27.2617 11.0269 28.0314C16.0274 28.801 20.2825 28.1176 20.5306 26.505Z" fill="#1D51FE"/>
<path d="M22.326 22.663C23.4065 21.4404 21.2092 17.7332 17.4182 14.3826C13.6271 11.0321 9.67792 9.30714 8.59736 10.5298C7.51681 11.7524 9.71412 15.4597 13.5052 18.8102C17.2963 22.1608 21.2455 23.8857 22.326 22.663Z" fill="#1D51FE"/>
<path d="M25.9015 20.4169C27.4715 19.9726 27.6275 15.6659 26.25 10.7976C24.8724 5.9293 22.4828 2.34292 20.9128 2.7872C19.3428 3.23148 19.1868 7.53817 20.5643 12.4065C21.9419 17.2747 24.3315 20.8612 25.9015 20.4169Z" fill="#1D51FE"/>
<path d="M35.6105 12.5587C37.0838 7.71845 37.0128 3.40952 35.4518 2.93437C33.8908 2.45921 31.431 5.99777 29.9577 10.838C28.4844 15.6781 28.5554 19.9871 30.1164 20.4622C31.6774 20.9374 34.1372 17.3989 35.6105 12.5587Z" fill="#1D51FE"/>
<path d="M42.5477 19.0985C46.4036 15.8228 48.673 12.1591 47.6164 10.9157C46.56 9.67216 42.5778 11.3197 38.722 14.5953C34.8662 17.8711 32.5969 21.5347 33.6533 22.7783C34.7097 24.0218 38.6919 22.3743 42.5477 19.0985Z" fill="#1D51FE"/>
<path d="M44.8417 28.3544C49.8565 27.6834 53.7463 25.8285 53.5299 24.2112C53.3136 22.594 49.0729 21.8268 44.0581 22.4976C39.0433 23.1686 35.1534 25.0235 35.3698 26.6408C35.5862 28.258 39.8268 29.0253 44.8417 28.3544Z" fill="#1D51FE"/>
<path d="M51.3106 38.5943C52.003 37.1169 48.8505 34.1786 44.2691 32.0316C39.6879 29.8845 35.4127 29.3418 34.7202 30.8193C34.0278 32.2968 37.1804 35.2351 41.7617 37.3821C46.343 39.529 50.6182 40.0718 51.3106 38.5943Z" fill="#1D51FE"/>
<path d="M41.674 49.4953C43.0553 48.6268 41.9919 44.4504 39.2988 40.1673C36.6058 35.8841 33.3028 33.1161 31.9215 33.9846C30.5401 34.853 31.6035 39.0294 34.2966 43.3125C36.9896 47.5957 40.2927 50.3638 41.674 49.4953Z" fill="#1D51FE"/>
</svg>
